<?xml version="1.0" encoding="UTF-8"?>
<svg id="Layer_1" data-name="Layer 1" xmlns="http://www.w3.org/2000/svg" viewBox="0 0 895.9 423.15">
  <defs>
    <style>
      .cls-1 {
        fill: #131212;
      }
    </style>
  </defs>
  <g>
    <path class="cls-1" d="M339.69,339.62l.52-2.08c4.48-15.27,25.48-17.46,32.96-3.35,3.16,5.96,2.51,13.08-.52,18.95.59-.12,1.09-.57,1.7-.66.56-.09,1.13.02,1.69-.04,11.41-1.34,14.54-15.32,3.81-20.07-2.02-.9-3.19-.84-5.3-1.06-1.32-.14-2.57-1.25-2.72-2.6-.1-.97-.11-4.45.15-5.28,1.08-3.44,7.65-1.57,10.12-.7,19.39,6.83,18.69,32.79-.78,38.79-1.81.56-6.11,1.49-7.79.74-.67-.3-1.69-1.39-1.69-2.12v-5.26l-1.52,2.23c-6.57,8.93-18.02,12.94-28.77,9.73-1.21-.36-3.94-1.13-4.23-2.48-.16-.76.12-1.09.41-1.74h-4.8c-.39,0-1.45-.96-1.45-1.33v-16.12l-.66,2.86c-3.64,14.22-18.23,22.89-32.55,18.94-1-.27-3.14-.94-3.94-1.49-1.07-.73-1.07-2.36-.02-3.1s2.15-.03,3.27.2c3.87.79,7.83,1.13,11.67-.05.48-.15,3.48-1.39,3.49-1.71,0-.17-1.47-.27-1.75-.33-8.36-1.52-15.22-8.86-15.24-17.52-.33-.06-.19.07-.25.27-.36,1.26-.58,2.44-1.05,3.69-2.57,6.79-8.62,12.29-15.9,13.45-.78.12-2.68.13-3.23.35-.28.11-.63.62-.9.83-6.59,5.31-14.41,7.59-22.85,5.74-1.3-.28-4.36-1.15-5.35-1.93-1.57-1.22-.42-3.63,1.59-3.32,1.17.18,2.5.67,3.76.86,5.1.8,10.37.49,14.53-2.86.18-.15,1.18-1,1.22-1.1.08-.19-.08-.16-.15-.2-.83-.49-1.71-.87-2.53-1.4-4.86-3.17-8.35-8.56-9.43-14.26-.41-2.16-1.17-6.29,1.81-6.9.89-.18,4.41-.16,5.38-.05,2.7.31,2.35,2.88,2.62,4.78,1.32,9.52,13.03,13.65,18.81,5.31,1.86-2.69,1.88-4.28,2.23-7.36.15-1.28,1.13-2.58,2.47-2.73.97-.11,4.38-.13,5.27.05s1.68,1.02,1.98,1.84l.33,1c1.27-7.07,7.27-12.81,14.32-14.06,8.67-1.53,17.06,3.37,20.03,11.57l.92,3.29v-16.93c0-.15.57-1.06.75-1.21s.55-.33.77-.38c.74-.18,4.43-.18,5.19-.03.35.07.79.32,1.04.58.16.16.57.88.57,1.04v16.69ZM313.53,334.34c-6.92.51-10.32,8.69-5.87,14,3.59,4.29,10.58,3.85,13.62-.83,3.85-5.91-.74-13.69-7.75-13.17ZM357.24,334.34c-7.57.59-10.56,10.13-4.72,15.04,4.05,3.41,10.4,2.15,12.9-2.48,3.21-5.95-1.46-13.09-8.18-12.56ZM339.69,345.51v15.31c0,.37-.32.94-.58,1.21.75.05,1.44.37,2.17.54,4.74,1.1,10.35,1.2,14.67-1.33.18-.11.61-.31.62-.54-7.59-.52-14.48-6.12-16.48-13.46l-.4-1.73Z"/>
    <path class="cls-1" d="M282.45,363.88l.6-1.31c2.24-3.02,7.07-.62,5.78,3.01-1.11,3.14-5.77,2.72-6.32-.54-.59,3.13-5.04,3.75-6.28.74-1.83-4.45,5.2-6.61,6.23-1.89Z"/>
  </g>
  <g>
    <circle cx="753.75" cy="107.61" r="24.34"/>
    <circle cx="752.88" cy="107.94" r="24.34"/>
    <circle cx="752.01" cy="108.27" r="24.34"/>
    <circle cx="751.14" cy="108.6" r="24.34"/>
    <circle cx="750.26" cy="108.93" r="24.34"/>
    <circle cx="749.39" cy="109.26" r="24.34"/>
    <circle cx="748.52" cy="109.6" r="24.34"/>
    <circle cx="747.65" cy="109.93" r="24.34"/>
    <circle cx="746.78" cy="110.26" r="24.34"/>
    <circle cx="745.91" cy="110.59" r="24.34"/>
    <circle cx="745.04" cy="110.92" r="24.34"/>
    <circle cx="744.17" cy="111.25" r="24.34"/>
    <circle cx="743.3" cy="111.58" r="24.34"/>
    <circle cx="742.43" cy="111.91" r="24.34"/>
    <circle cx="741.56" cy="112.24" r="24.34"/>
    <circle cx="740.69" cy="112.57" r="24.34"/>
    <circle cx="739.82" cy="112.9" r="24.34"/>
    <circle cx="738.95" cy="113.24" r="24.34"/>
    <circle cx="738.08" cy="113.57" r="24.34"/>
    <circle cx="737.2" cy="113.9" r="24.34"/>
    <circle cx="736.33" cy="114.23" r="24.34"/>
    <circle cx="735.46" cy="114.56" r="24.34"/>
    <circle cx="734.59" cy="114.89" r="24.34"/>
    <circle cx="733.72" cy="115.22" r="24.34"/>
    <circle cx="732.85" cy="115.55" r="24.34"/>
    <circle cx="731.98" cy="115.88" r="24.34"/>
    <circle cx="731.11" cy="116.21" r="24.34"/>
    <circle cx="730.24" cy="116.55" r="24.34"/>
    <circle cx="729.37" cy="116.88" r="24.34"/>
    <circle cx="728.5" cy="117.21" r="24.34"/>
    <circle cx="727.63" cy="117.54" r="24.34"/>
    <circle cx="726.76" cy="117.87" r="24.34"/>
    <circle cx="725.89" cy="118.2" r="24.34"/>
    <circle cx="725.01" cy="118.53" r="24.34"/>
    <circle cx="724.14" cy="118.86" r="24.34"/>
    <circle cx="723.27" cy="119.19" r="24.34"/>
    <circle cx="722.4" cy="119.52" r="24.34"/>
    <circle cx="721.53" cy="119.85" r="24.34"/>
    <circle cx="720.66" cy="120.19" r="24.34"/>
    <circle cx="719.79" cy="120.52" r="24.34"/>
    <circle cx="718.92" cy="120.85" r="24.34"/>
    <circle cx="718.05" cy="121.18" r="24.34"/>
    <circle cx="717.18" cy="121.51" r="24.34"/>
    <circle cx="716.31" cy="121.84" r="24.34"/>
    <circle cx="715.44" cy="122.17" r="24.34"/>
    <circle cx="714.57" cy="122.5" r="24.34"/>
    <circle cx="713.7" cy="122.83" r="24.34"/>
    <circle cx="712.83" cy="123.16" r="24.34"/>
    <circle cx="711.95" cy="123.49" r="24.34"/>
    <circle cx="711.08" cy="123.83" r="24.34"/>
    <circle cx="710.21" cy="124.16" r="24.34"/>
    <circle cx="709.34" cy="124.49" r="24.34"/>
    <circle cx="708.47" cy="124.82" r="24.34"/>
    <circle cx="707.6" cy="125.15" r="24.34"/>
    <circle cx="706.73" cy="125.48" r="24.34"/>
    <circle cx="705.86" cy="125.81" r="24.34"/>
    <circle cx="704.99" cy="126.14" r="24.34"/>
    <circle cx="704.12" cy="126.47" r="24.34"/>
    <circle cx="703.25" cy="126.8" r="24.34"/>
    <circle cx="702.38" cy="127.14" r="24.34"/>
    <circle cx="701.51" cy="127.47" r="24.34"/>
    <circle cx="700.64" cy="127.8" r="24.34"/>
    <circle cx="699.76" cy="128.13" r="24.34"/>
    <circle cx="698.89" cy="128.46" r="24.34"/>
    <circle cx="698.02" cy="128.79" r="24.34"/>
    <circle cx="697.15" cy="129.12" r="24.34"/>
    <circle cx="696.28" cy="129.45" r="24.34"/>
    <circle cx="695.41" cy="129.78" r="24.34"/>
    <circle cx="694.54" cy="130.11" r="24.34"/>
    <circle cx="693.67" cy="130.44" r="24.34"/>
    <circle cx="692.8" cy="130.78" r="24.34"/>
    <circle cx="691.93" cy="131.11" r="24.34"/>
    <circle cx="691.06" cy="131.44" r="24.34"/>
    <circle cx="690.19" cy="131.77" r="24.34"/>
    <circle cx="689.32" cy="132.1" r="24.34"/>
    <circle cx="688.45" cy="132.43" r="24.34"/>
    <circle cx="687.58" cy="132.76" r="24.34"/>
    <circle cx="686.7" cy="133.09" r="24.34"/>
    <circle cx="685.83" cy="133.42" r="24.34"/>
    <circle cx="684.96" cy="133.75" r="24.34"/>
    <circle cx="684.09" cy="134.08" r="24.34"/>
    <circle cx="683.22" cy="134.42" r="24.34"/>
    <circle cx="682.35" cy="134.75" r="24.34"/>
    <circle cx="681.48" cy="135.08" r="24.34"/>
    <circle cx="680.61" cy="135.41" r="24.34"/>
    <circle cx="679.74" cy="135.74" r="24.34"/>
    <circle cx="678.87" cy="136.07" r="24.34"/>
    <circle cx="678" cy="136.4" r="24.34"/>
    <circle cx="677.13" cy="136.73" r="24.34"/>
    <circle cx="676.25" cy="137.07" r="24.34"/>
    <circle cx="675.36" cy="137.46" r="24.34"/>
    <circle cx="674.51" cy="137.9" r="24.34"/>
    <circle cx="673.71" cy="138.4" r="24.34"/>
    <circle cx="672.96" cy="138.96" r="24.34"/>
    <circle cx="672.26" cy="139.56" r="24.34"/>
    <circle cx="671.6" cy="140.2" r="24.34"/>
    <circle cx="671" cy="140.89" r="24.34"/>
    <circle cx="670.45" cy="141.61" r="24.34"/>
    <circle cx="669.94" cy="142.37" r="24.34"/>
    <circle cx="669.5" cy="143.16" r="24.34"/>
    <circle cx="669.1" cy="143.98" r="24.34"/>
    <circle cx="668.74" cy="144.87" r="24.34"/>
    <circle cx="668.5" cy="145.57" r="24.34"/>
    <circle cx="668.29" cy="146.34" r="24.34"/>
    <circle cx="668.12" cy="147.12" r="24.34"/>
    <circle cx="668" cy="147.91" r="24.34"/>
    <circle cx="667.92" cy="148.7" r="24.34"/>
    <circle cx="667.88" cy="149.5" r="24.34"/>
    <circle cx="667.89" cy="150.31" r="24.34"/>
    <circle cx="667.95" cy="151.11" r="24.34"/>
    <circle cx="668.05" cy="151.91" r="24.34"/>
    <circle cx="668.2" cy="152.71" r="24.34"/>
    <circle cx="668.39" cy="153.5" r="24.34"/>
    <circle cx="668.64" cy="154.28" r="24.34"/>
    <circle cx="668.93" cy="155.05" r="24.34"/>
    <circle cx="669.27" cy="155.81" r="24.34"/>
    <circle cx="669.66" cy="156.55" r="24.34"/>
    <circle cx="670.1" cy="157.28" r="24.34"/>
    <circle cx="670.59" cy="157.98" r="24.34"/>
    <circle cx="671.14" cy="158.66" r="24.34"/>
    <circle cx="671.67" cy="159.28" r="24.34"/>
    <circle cx="672.19" cy="159.9" r="24.34"/>
    <circle cx="672.72" cy="160.53" r="24.34"/>
    <circle cx="673.25" cy="161.15" r="24.34"/>
    <circle cx="673.78" cy="161.77" r="24.34"/>
    <circle cx="674.31" cy="162.39" r="24.34"/>
    <circle cx="674.83" cy="163.01" r="24.34"/>
    <circle cx="675.36" cy="163.63" r="24.34"/>
    <circle cx="675.89" cy="164.25" r="24.34"/>
    <circle cx="676.42" cy="164.87" r="24.34"/>
    <circle cx="676.95" cy="165.49" r="24.34"/>
    <circle cx="677.47" cy="166.11" r="24.34"/>
    <circle cx="678" cy="166.73" r="24.34"/>
    <circle cx="678.53" cy="167.35" r="24.34"/>
    <circle cx="679.06" cy="167.97" r="24.34"/>
    <circle cx="679.59" cy="168.59" r="24.34"/>
    <circle cx="680.11" cy="169.21" r="24.34"/>
    <circle cx="680.64" cy="169.83" r="24.34"/>
    <circle cx="681.17" cy="170.45" r="24.34"/>
    <circle cx="681.7" cy="171.07" r="24.34"/>
    <circle cx="682.23" cy="171.7" r="24.34"/>
    <circle cx="682.75" cy="172.32" r="24.34"/>
    <circle cx="683.28" cy="172.94" r="24.34"/>
    <circle cx="683.81" cy="173.56" r="24.34"/>
    <circle cx="684.34" cy="174.18" r="24.34"/>
    <circle cx="684.87" cy="174.8" r="24.34"/>
    <circle cx="685.39" cy="175.42" r="24.34"/>
    <circle cx="685.92" cy="176.04" r="24.34"/>
    <circle cx="686.45" cy="176.66" r="24.34"/>
    <circle cx="686.98" cy="177.28" r="24.34"/>
    <circle cx="687.51" cy="177.9" r="24.34"/>
    <circle cx="688.03" cy="178.52" r="24.34"/>
    <circle cx="688.56" cy="179.14" r="24.34"/>
    <circle cx="689.09" cy="179.76" r="24.34"/>
    <circle cx="689.62" cy="180.38" r="24.34"/>
    <circle cx="690.15" cy="181" r="24.34"/>
    <circle cx="690.68" cy="181.62" r="24.34"/>
    <circle cx="691.2" cy="182.24" r="24.34"/>
    <circle cx="691.73" cy="182.87" r="24.34"/>
    <circle cx="692.26" cy="183.49" r="24.34"/>
    <circle cx="692.79" cy="184.11" r="24.34"/>
    <circle cx="693.32" cy="184.73" r="24.34"/>
    <circle cx="693.84" cy="185.35" r="24.34"/>
    <circle cx="694.37" cy="185.97" r="24.34"/>
    <circle cx="694.9" cy="186.59" r="24.34"/>
    <circle cx="695.43" cy="187.21" r="24.34"/>
    <circle cx="695.96" cy="187.83" r="24.34"/>
    <circle cx="696.48" cy="188.45" r="24.34"/>
    <circle cx="697.01" cy="189.07" r="24.34"/>
    <circle cx="697.54" cy="189.69" r="24.34"/>
    <circle cx="698.07" cy="190.31" r="24.34"/>
    <circle cx="698.6" cy="190.93" r="24.34"/>
    <circle cx="699.12" cy="191.55" r="24.34"/>
    <circle cx="699.65" cy="192.17" r="24.34"/>
    <circle cx="700.18" cy="192.79" r="24.34"/>
    <circle cx="700.71" cy="193.42" r="24.34"/>
    <circle cx="701.24" cy="194.04" r="24.34"/>
    <circle cx="701.76" cy="194.66" r="24.34"/>
    <circle cx="702.29" cy="195.28" r="24.34"/>
    <circle cx="702.82" cy="195.9" r="24.34"/>
    <circle cx="703.35" cy="196.52" r="24.34"/>
    <circle cx="703.88" cy="197.14" r="24.34"/>
    <circle cx="704.4" cy="197.76" r="24.34"/>
    <circle cx="704.93" cy="198.38" r="24.34"/>
    <circle cx="705.46" cy="199" r="24.34"/>
    <circle cx="705.99" cy="199.62" r="24.34"/>
    <circle cx="706.52" cy="200.24" r="24.34"/>
    <circle cx="707.04" cy="200.86" r="24.34"/>
    <circle cx="707.57" cy="201.48" r="24.34"/>
    <circle cx="708.1" cy="202.1" r="24.34"/>
    <circle cx="708.63" cy="202.72" r="24.34"/>
    <circle cx="709.16" cy="203.34" r="24.34"/>
    <circle cx="709.68" cy="203.96" r="24.34"/>
    <circle cx="710.21" cy="204.59" r="24.34"/>
    <circle cx="710.74" cy="205.21" r="24.34"/>
    <circle cx="711.27" cy="205.83" r="24.34"/>
    <circle cx="711.8" cy="206.45" r="24.34"/>
    <circle cx="712.32" cy="207.07" r="24.34"/>
    <circle cx="712.85" cy="207.69" r="24.34"/>
    <circle cx="713.38" cy="208.31" r="24.34"/>
    <circle cx="713.91" cy="208.93" r="24.34"/>
    <circle cx="714.44" cy="209.55" r="24.34"/>
    <circle cx="714.97" cy="210.17" r="24.34"/>
    <circle cx="715.74" cy="211.14" r="24.34"/>
    <circle cx="716.43" cy="212.14" r="24.34"/>
    <circle cx="717.06" cy="213.16" r="24.34"/>
    <circle cx="717.6" cy="214.2" r="24.34"/>
    <circle cx="718.08" cy="215.26" r="24.34"/>
    <circle cx="718.48" cy="216.34" r="24.34"/>
    <circle cx="718.82" cy="217.43" r="24.34"/>
    <circle cx="719.08" cy="218.53" r="24.34"/>
    <circle cx="719.28" cy="219.64" r="24.34"/>
    <circle cx="719.41" cy="220.76" r="24.34"/>
    <circle cx="719.47" cy="221.87" r="24.34"/>
    <circle cx="719.47" cy="222.98" r="24.34"/>
    <circle cx="719.41" cy="224.08" r="24.34"/>
    <circle cx="719.29" cy="225.18" r="24.34"/>
    <circle cx="719.1" cy="226.27" r="24.34"/>
    <circle cx="718.85" cy="227.34" r="24.34"/>
    <circle cx="718.55" cy="228.39" r="24.34"/>
    <circle cx="718.19" cy="229.42" r="24.34"/>
    <circle cx="717.77" cy="230.43" r="24.34"/>
    <circle cx="717.29" cy="231.41" r="24.34"/>
    <circle cx="716.77" cy="232.37" r="24.34"/>
    <circle cx="716.18" cy="233.29" r="24.34"/>
    <circle cx="715.55" cy="234.17" r="24.34"/>
    <circle cx="714.87" cy="235.02" r="24.34"/>
    <circle cx="714.14" cy="235.82" r="24.34"/>
    <circle cx="713.36" cy="236.58" r="24.34"/>
    <circle cx="712.53" cy="237.29" r="24.34"/>
    <circle cx="711.65" cy="237.95" r="24.34"/>
    <circle cx="710.74" cy="238.56" r="24.34"/>
    <circle cx="709.77" cy="239.1" r="24.34"/>
    <circle cx="708.77" cy="239.59" r="24.34"/>
    <circle cx="707.72" cy="240.02" r="24.34"/>
    <circle cx="706.64" cy="240.38" r="24.34"/>
    <circle cx="705.51" cy="240.67" r="24.34"/>
    <circle cx="704.35" cy="240.88" r="24.34"/>
    <circle cx="703.16" cy="241.03" r="24.34"/>
    <circle cx="702.03" cy="241.13" r="24.34"/>
    <circle cx="700.91" cy="241.23" r="24.34"/>
    <circle cx="699.79" cy="241.33" r="24.34"/>
    <circle cx="698.67" cy="241.43" r="24.34"/>
    <circle cx="697.55" cy="241.53" r="24.34"/>
    <circle cx="696.43" cy="241.63" r="24.34"/>
    <circle cx="695.31" cy="241.73" r="24.34"/>
    <circle cx="694.18" cy="241.83" r="24.34"/>
    <circle cx="693.06" cy="241.93" r="24.34"/>
    <circle cx="691.94" cy="242.03" r="24.34"/>
    <circle cx="690.82" cy="242.13" r="24.34"/>
    <circle cx="689.7" cy="242.23" r="24.34"/>
    <circle cx="688.58" cy="242.33" r="24.34"/>
    <circle cx="687.45" cy="242.43" r="24.34"/>
    <circle cx="686.33" cy="242.53" r="24.34"/>
    <circle cx="685.21" cy="242.63" r="24.34"/>
    <circle cx="684.09" cy="242.73" r="24.34"/>
    <circle cx="682.97" cy="242.83" r="24.34"/>
    <circle cx="681.85" cy="242.93" r="24.34"/>
    <circle cx="680.72" cy="243.03" r="24.34"/>
    <circle cx="679.6" cy="243.13" r="24.34"/>
    <circle cx="678.48" cy="243.23" r="24.34"/>
    <circle cx="677.36" cy="243.33" r="24.34"/>
    <circle cx="676.24" cy="243.43" r="24.34"/>
    <circle cx="675.12" cy="243.53" r="24.34"/>
    <circle cx="673.99" cy="243.63" r="24.34"/>
    <circle cx="672.87" cy="243.73" r="24.34"/>
    <circle cx="671.75" cy="243.83" r="24.34"/>
    <circle cx="670.63" cy="243.93" r="24.34"/>
    <circle cx="669.51" cy="244.03" r="24.34"/>
    <circle cx="668.39" cy="244.13" r="24.34"/>
    <circle cx="667.26" cy="244.24" r="24.34"/>
    <circle cx="666.14" cy="244.34" r="24.34"/>
    <circle cx="665.02" cy="244.44" r="24.34"/>
    <circle cx="663.9" cy="244.54" r="24.34"/>
    <circle cx="662.78" cy="244.64" r="24.34"/>
    <circle cx="661.66" cy="244.74" r="24.34"/>
    <circle cx="660.53" cy="244.84" r="24.34"/>
    <circle cx="659.41" cy="244.94" r="24.34"/>
    <circle cx="658.29" cy="245.04" r="24.34"/>
    <circle cx="657.17" cy="245.14" r="24.34"/>
    <circle cx="656.05" cy="245.24" r="24.34"/>
    <circle cx="654.93" cy="245.34" r="24.34"/>
    <circle cx="653.81" cy="245.44" r="24.34"/>
    <circle cx="652.68" cy="245.54" r="24.34"/>
    <circle cx="651.56" cy="245.64" r="24.34"/>
    <circle cx="650.44" cy="245.74" r="24.34"/>
    <circle cx="649.32" cy="245.84" r="24.34"/>
    <circle cx="648.2" cy="245.94" r="24.34"/>
    <circle cx="647.08" cy="246.04" r="24.34"/>
    <circle cx="645.95" cy="246.14" r="24.34"/>
    <circle cx="644.83" cy="246.24" r="24.34"/>
    <circle cx="643.71" cy="246.34" r="24.34"/>
    <circle cx="642.59" cy="246.44" r="24.34"/>
    <circle cx="641.47" cy="246.54" r="24.34"/>
    <circle cx="640.35" cy="246.64" r="24.34"/>
    <circle cx="639.22" cy="246.74" r="24.34"/>
    <circle cx="638.1" cy="246.84" r="24.34"/>
    <circle cx="636.98" cy="246.94" r="24.34"/>
    <circle cx="635.86" cy="247.04" r="24.34"/>
    <circle cx="634.74" cy="247.14" r="24.34"/>
    <circle cx="633.62" cy="247.24" r="24.34"/>
    <circle cx="632.49" cy="247.34" r="24.34"/>
    <circle cx="631.37" cy="247.44" r="24.34"/>
    <circle cx="630.25" cy="247.55" r="24.34"/>
    <circle cx="628.49" cy="247.64" r="24.34"/>
    <circle cx="626.76" cy="247.63" r="24.34"/>
    <circle cx="625.05" cy="247.5" r="24.34"/>
    <circle cx="623.37" cy="247.26" r="24.34"/>
    <circle cx="621.73" cy="246.91" r="24.34"/>
    <circle cx="620.12" cy="246.47" r="24.34"/>
    <circle cx="618.55" cy="245.92" r="24.34"/>
    <circle cx="617.03" cy="245.28" r="24.34"/>
    <circle cx="615.55" cy="244.54" r="24.34"/>
    <circle cx="614.12" cy="243.72" r="24.34"/>
    <circle cx="612.75" cy="242.81" r="24.34"/>
    <circle cx="611.43" cy="241.82" r="24.34"/>
    <circle cx="610.17" cy="240.75" r="24.34"/>
    <circle cx="608.97" cy="239.61" r="24.34"/>
    <circle cx="607.84" cy="238.39" r="24.34"/>
    <circle cx="606.78" cy="237.11" r="24.34"/>
    <circle cx="605.8" cy="235.76" r="24.34"/>
    <circle cx="604.89" cy="234.35" r="24.34"/>
    <circle cx="604.06" cy="232.88" r="24.34"/>
    <circle cx="603.31" cy="231.36" r="24.34"/>
    <circle cx="602.65" cy="229.79" r="24.34"/>
    <circle cx="602.08" cy="228.17" r="24.34"/>
    <circle cx="601.6" cy="226.5" r="24.34"/>
    <circle cx="601.22" cy="224.8" r="24.34"/>
    <circle cx="600.94" cy="223.05" r="24.34"/>
    <circle cx="600.76" cy="221.28" r="24.34"/>
    <circle cx="600.69" cy="219.47" r="24.34"/>
    <circle cx="600.73" cy="217.63" r="24.34"/>
    <circle cx="600.84" cy="215.89" r="24.34"/>
    <circle cx="600.96" cy="214.19" r="24.34"/>
    <circle cx="601.07" cy="212.5" r="24.34"/>
    <circle cx="601.18" cy="210.8" r="24.34"/>
    <circle cx="601.3" cy="209.1" r="24.34"/>
    <circle cx="601.41" cy="207.4" r="24.34"/>
    <circle cx="601.53" cy="205.7" r="24.34"/>
    <circle cx="601.64" cy="204" r="24.34"/>
    <circle cx="601.76" cy="202.3" r="24.34"/>
    <circle cx="601.87" cy="200.6" r="24.34"/>
    <circle cx="601.99" cy="198.91" r="24.34"/>
    <circle cx="602.1" cy="197.21" r="24.34"/>
    <circle cx="602.22" cy="195.51" r="24.34"/>
    <circle cx="602.33" cy="193.81" r="24.34"/>
    <circle cx="602.44" cy="192.11" r="24.34"/>
    <circle cx="602.56" cy="190.41" r="24.34"/>
    <circle cx="602.67" cy="188.71" r="24.34"/>
    <circle cx="602.79" cy="187.02" r="24.34"/>
    <circle cx="602.9" cy="185.32" r="24.34"/>
    <circle cx="603.02" cy="183.62" r="24.34"/>
    <circle cx="603.13" cy="181.92" r="24.34"/>
    <circle cx="603.25" cy="180.22" r="24.34"/>
    <circle cx="603.36" cy="178.52" r="24.34"/>
    <circle cx="603.48" cy="176.82" r="24.34"/>
    <circle cx="603.59" cy="175.12" r="24.34"/>
    <circle cx="603.7" cy="173.43" r="24.34"/>
    <circle cx="603.82" cy="171.73" r="24.34"/>
    <circle cx="603.93" cy="170.03" r="24.34"/>
    <circle cx="604.05" cy="168.33" r="24.34"/>
    <circle cx="604.16" cy="166.63" r="24.34"/>
    <circle cx="604.28" cy="164.93" r="24.34"/>
    <circle cx="604.39" cy="163.23" r="24.34"/>
    <circle cx="604.51" cy="161.53" r="24.34"/>
    <circle cx="604.62" cy="159.84" r="24.34"/>
    <circle cx="604.73" cy="158.14" r="24.34"/>
    <circle cx="604.85" cy="156.44" r="24.34"/>
    <circle cx="604.96" cy="154.74" r="24.34"/>
    <circle cx="605.08" cy="153.04" r="24.34"/>
    <circle cx="605.19" cy="151.34" r="24.34"/>
    <circle cx="605.31" cy="149.64" r="24.34"/>
    <circle cx="605.42" cy="147.95" r="24.34"/>
    <circle cx="605.54" cy="146.25" r="24.34"/>
    <circle cx="605.65" cy="144.55" r="24.34"/>
    <circle cx="605.77" cy="142.85" r="24.34"/>
    <circle cx="605.88" cy="141.15" r="24.34"/>
    <circle cx="605.99" cy="139.45" r="24.34"/>
    <circle cx="606.11" cy="137.75" r="24.34"/>
    <circle cx="606.22" cy="136.05" r="24.34"/>
    <circle cx="606.34" cy="134.36" r="24.34"/>
    <circle cx="606.45" cy="132.66" r="24.34"/>
    <circle cx="606.57" cy="130.96" r="24.34"/>
    <circle cx="606.68" cy="129.26" r="24.34"/>
    <circle cx="606.8" cy="127.56" r="24.34"/>
    <circle cx="606.91" cy="125.86" r="24.34"/>
    <circle cx="607.03" cy="124.16" r="24.34"/>
    <circle cx="607.14" cy="122.46" r="24.34"/>
    <circle cx="607.25" cy="120.77" r="24.34"/>
    <circle cx="607.37" cy="119.07" r="24.34"/>
    <circle cx="607.48" cy="117.37" r="24.34"/>
    <circle cx="607.6" cy="115.67" r="24.34"/>
    <circle cx="607.71" cy="113.97" r="24.34"/>
    <circle cx="607.83" cy="112.27" r="24.34"/>
    <circle cx="607.94" cy="110.57" r="24.34"/>
    <circle cx="608.06" cy="108.87" r="24.34"/>
    <circle cx="608.17" cy="107.18" r="24.34"/>
    <circle cx="608.28" cy="105.48" r="24.34"/>
    <circle cx="608.4" cy="103.78" r="24.34"/>
    <circle cx="608.51" cy="102.08" r="24.34"/>
    <circle cx="608.63" cy="100.38" r="24.34"/>
    <circle cx="608.74" cy="98.68" r="24.34"/>
    <circle cx="608.86" cy="96.98" r="24.34"/>
    <circle cx="608.97" cy="95.29" r="24.34"/>
    <circle cx="609.09" cy="93.59" r="24.34"/>
  </g>
  <g>
    <circle cx="551.04" cy="165.92" r="24.34"/>
    <circle cx="551.04" cy="165.92" r="24.34"/>
    <circle cx="551.04" cy="165.92" r="24.34"/>
    <circle cx="551.04" cy="165.92" r="24.34"/>
    <circle cx="551.04" cy="165.92" r="24.34"/>
    <circle cx="551.04" cy="165.92" r="24.34"/>
    <circle cx="551.05" cy="165.92" r="24.34"/>
    <circle cx="551.05" cy="165.92" r="24.34"/>
    <circle cx="551.05" cy="165.93" r="24.34"/>
    <circle cx="551.05" cy="165.93" r="24.34"/>
    <circle cx="551.05" cy="165.93" r="24.34"/>
    <circle cx="551.05" cy="165.93" r="24.34"/>
    <circle cx="551.05" cy="165.94" r="24.34"/>
    <circle cx="551.05" cy="165.94" r="24.34"/>
    <circle cx="551.05" cy="165.95" r="24.34"/>
    <circle cx="551.06" cy="165.95" r="24.34"/>
    <circle cx="551.06" cy="165.95" r="24.34"/>
    <circle cx="551.06" cy="165.96" r="24.34"/>
    <circle cx="551.06" cy="165.96" r="24.34"/>
    <circle cx="551.06" cy="165.97" r="24.34"/>
    <circle cx="551.07" cy="165.97" r="24.34"/>
    <circle cx="551.07" cy="165.98" r="24.34"/>
    <circle cx="551.07" cy="165.99" r="24.34"/>
    <circle cx="551.07" cy="165.99" r="24.34"/>
    <circle cx="551.08" cy="166" r="24.34"/>
    <circle cx="551.08" cy="166.01" r="24.34"/>
    <circle cx="551.08" cy="166.01" r="24.34"/>
    <circle cx="551.09" cy="166.02" r="24.34"/>
    <circle cx="551.09" cy="166.03" r="24.34"/>
    <circle cx="551.09" cy="166.04" r="24.34"/>
    <circle cx="551.1" cy="166.04" r="24.34"/>
    <circle cx="551.1" cy="166.05" r="24.34"/>
    <circle cx="551.1" cy="166.06" r="24.34"/>
    <circle cx="551.11" cy="166.07" r="24.34"/>
    <circle cx="551.11" cy="166.08" r="24.34"/>
    <circle cx="551.11" cy="166.09" r="24.34"/>
    <circle cx="551.12" cy="166.1" r="24.34"/>
    <circle cx="551.12" cy="166.11" r="24.34"/>
    <circle cx="551.13" cy="166.12" r="24.34"/>
    <circle cx="551.13" cy="166.13" r="24.34"/>
    <circle cx="551.14" cy="166.14" r="24.34"/>
    <circle cx="551.14" cy="166.15" r="24.34"/>
    <circle cx="551.15" cy="166.17" r="24.34"/>
    <circle cx="551.15" cy="166.18" r="24.34"/>
    <circle cx="551.15" cy="166.19" r="24.34"/>
    <circle cx="551.16" cy="166.2" r="24.34"/>
    <circle cx="551.17" cy="166.22" r="24.34"/>
    <circle cx="551.17" cy="166.23" r="24.34"/>
    <circle cx="551.18" cy="166.24" r="24.34"/>
    <circle cx="551.18" cy="166.25" r="24.34"/>
    <circle cx="551.19" cy="166.27" r="24.34"/>
    <circle cx="551.19" cy="166.28" r="24.34"/>
    <circle cx="551.2" cy="166.3" r="24.34"/>
    <circle cx="551.2" cy="166.31" r="24.34"/>
    <circle cx="551.21" cy="166.33" r="24.34"/>
    <circle cx="551.22" cy="166.34" r="24.34"/>
    <circle cx="551.22" cy="166.36" r="24.34"/>
    <circle cx="551.23" cy="166.37" r="24.34"/>
    <circle cx="551.23" cy="166.39" r="24.34"/>
    <circle cx="551.24" cy="166.4" r="24.34"/>
    <circle cx="551.25" cy="166.42" r="24.34"/>
    <circle cx="551.25" cy="166.44" r="24.34"/>
    <circle cx="551.26" cy="166.46" r="24.34"/>
    <circle cx="551.27" cy="166.47" r="24.34"/>
    <circle cx="551.27" cy="166.49" r="24.34"/>
    <circle cx="551.28" cy="166.51" r="24.34"/>
    <circle cx="551.29" cy="166.53" r="24.34"/>
    <circle cx="551.3" cy="166.54" r="24.34"/>
    <circle cx="551.3" cy="166.56" r="24.34"/>
    <circle cx="551.31" cy="166.58" r="24.34"/>
    <circle cx="551.32" cy="166.6" r="24.34"/>
    <circle cx="551.33" cy="166.62" r="24.34"/>
    <circle cx="551.33" cy="166.64" r="24.34"/>
    <circle cx="551.34" cy="166.66" r="24.34"/>
    <circle cx="551.35" cy="166.68" r="24.34"/>
    <circle cx="551.36" cy="166.7" r="24.34"/>
    <circle cx="551.37" cy="166.72" r="24.34"/>
    <circle cx="551.37" cy="166.74" r="24.34"/>
    <circle cx="551.38" cy="166.76" r="24.34"/>
    <circle cx="551.39" cy="166.79" r="24.34"/>
    <circle cx="551.4" cy="166.81" r="24.34"/>
    <circle cx="551.41" cy="166.83" r="24.34"/>
    <circle cx="551.42" cy="166.85" r="24.34"/>
    <circle cx="551.43" cy="166.87" r="24.34"/>
    <circle cx="551.43" cy="166.9" r="24.34"/>
    <circle cx="551.44" cy="166.92" r="24.34"/>
    <circle cx="551.45" cy="166.94" r="24.34"/>
    <circle cx="551.46" cy="166.97" r="24.34"/>
    <circle cx="551.47" cy="166.99" r="24.34"/>
    <circle cx="551.48" cy="167.01" r="24.34"/>
    <circle cx="551.49" cy="167.04" r="24.34"/>
    <circle cx="551.5" cy="167.06" r="24.34"/>
    <circle cx="551.51" cy="167.09" r="24.34"/>
    <circle cx="551.52" cy="167.11" r="24.34"/>
    <circle cx="551.53" cy="167.14" r="24.34"/>
    <circle cx="551.54" cy="167.16" r="24.34"/>
    <circle cx="551.55" cy="167.19" r="24.34"/>
    <circle cx="551.56" cy="167.22" r="24.34"/>
    <circle cx="551.57" cy="167.24" r="24.34"/>
    <circle cx="551.58" cy="167.27" r="24.34"/>
    <circle cx="551.59" cy="167.3" r="24.34"/>
    <circle cx="554.76" cy="176.64" r="24.34"/>
    <circle cx="551.62" cy="167.39" r="24.34"/>
    <circle cx="551.65" cy="167.46" r="24.34"/>
    <circle cx="551.68" cy="167.52" r="24.34"/>
    <circle cx="551.7" cy="167.59" r="24.34"/>
    <circle cx="551.73" cy="167.67" r="24.34"/>
    <circle cx="551.76" cy="167.74" r="24.34"/>
    <circle cx="551.79" cy="167.81" r="24.34"/>
    <circle cx="551.81" cy="167.89" r="24.34"/>
    <circle cx="551.84" cy="167.97" r="24.34"/>
    <circle cx="551.87" cy="168.04" r="24.34"/>
    <circle cx="551.9" cy="168.12" r="24.34"/>
    <circle cx="551.93" cy="168.21" r="24.34"/>
    <circle cx="551.96" cy="168.29" r="24.34"/>
    <circle cx="551.99" cy="168.37" r="24.34"/>
    <circle cx="552.03" cy="168.46" r="24.34"/>
    <circle cx="552.06" cy="168.54" r="24.34"/>
    <circle cx="552.09" cy="168.63" r="24.34"/>
    <circle cx="552.12" cy="168.72" r="24.34"/>
    <circle cx="552.16" cy="168.81" r="24.34"/>
    <circle cx="552.19" cy="168.91" r="24.34"/>
    <circle cx="552.22" cy="169" r="24.34"/>
    <circle cx="552.26" cy="169.09" r="24.34"/>
    <circle cx="552.29" cy="169.19" r="24.34"/>
    <circle cx="552.33" cy="169.29" r="24.34"/>
    <circle cx="552.37" cy="169.39" r="24.34"/>
    <circle cx="552.4" cy="169.49" r="24.34"/>
    <circle cx="552.44" cy="169.59" r="24.34"/>
    <circle cx="552.47" cy="169.69" r="24.34"/>
    <circle cx="552.51" cy="169.8" r="24.34"/>
    <circle cx="552.55" cy="169.9" r="24.34"/>
    <circle cx="552.59" cy="170.01" r="24.34"/>
    <circle cx="552.63" cy="170.12" r="24.34"/>
    <circle cx="552.66" cy="170.23" r="24.34"/>
    <circle cx="552.7" cy="170.34" r="24.34"/>
    <circle cx="552.74" cy="170.45" r="24.34"/>
    <circle cx="552.78" cy="170.57" r="24.34"/>
    <circle cx="552.82" cy="170.68" r="24.34"/>
    <circle cx="552.86" cy="170.8" r="24.34"/>
    <circle cx="552.9" cy="170.91" r="24.34"/>
    <circle cx="552.95" cy="171.03" r="24.34"/>
    <circle cx="552.99" cy="171.15" r="24.34"/>
    <circle cx="553.03" cy="171.27" r="24.34"/>
    <circle cx="553.07" cy="171.4" r="24.34"/>
    <circle cx="553.11" cy="171.52" r="24.34"/>
    <circle cx="553.16" cy="171.65" r="24.34"/>
    <circle cx="553.2" cy="171.77" r="24.34"/>
    <circle cx="553.24" cy="171.9" r="24.34"/>
    <circle cx="553.29" cy="172.03" r="24.34"/>
    <circle cx="553.33" cy="172.16" r="24.34"/>
    <circle cx="553.37" cy="172.29" r="24.34"/>
    <circle cx="553.42" cy="172.42" r="24.34"/>
    <circle cx="553.46" cy="172.56" r="24.34"/>
    <circle cx="553.51" cy="172.69" r="24.34"/>
    <circle cx="553.55" cy="172.83" r="24.34"/>
    <circle cx="553.6" cy="172.97" r="24.34"/>
    <circle cx="553.64" cy="173.11" r="24.34"/>
    <circle cx="553.69" cy="173.25" r="24.34"/>
    <circle cx="553.74" cy="173.39" r="24.34"/>
    <circle cx="553.78" cy="173.53" r="24.34"/>
    <circle cx="553.83" cy="173.67" r="24.34"/>
    <circle cx="553.88" cy="173.82" r="24.34"/>
    <circle cx="553.92" cy="173.96" r="24.34"/>
    <circle cx="553.97" cy="174.11" r="24.34"/>
    <circle cx="554.02" cy="174.26" r="24.34"/>
    <circle cx="554.07" cy="174.41" r="24.34"/>
    <circle cx="554.11" cy="174.56" r="24.34"/>
    <circle cx="554.16" cy="174.71" r="24.34"/>
    <circle cx="554.21" cy="174.86" r="24.34"/>
    <circle cx="554.26" cy="175.02" r="24.34"/>
    <circle cx="554.31" cy="175.17" r="24.34"/>
    <circle cx="554.36" cy="175.33" r="24.34"/>
    <circle cx="554.41" cy="175.49" r="24.34"/>
    <circle cx="554.46" cy="175.65" r="24.34"/>
    <circle cx="554.51" cy="175.81" r="24.34"/>
    <circle cx="554.56" cy="175.97" r="24.34"/>
    <circle cx="554.61" cy="176.13" r="24.34"/>
    <circle cx="554.66" cy="176.29" r="24.34"/>
    <circle cx="554.71" cy="176.46" r="24.34"/>
    <circle cx="554.76" cy="176.63" r="24.34"/>
    <circle cx="554.81" cy="176.79" r="24.34"/>
    <circle cx="554.86" cy="176.96" r="24.34"/>
    <circle cx="554.91" cy="177.13" r="24.34"/>
    <circle cx="554.96" cy="177.3" r="24.34"/>
    <circle cx="555.01" cy="177.47" r="24.34"/>
    <circle cx="555.06" cy="177.64" r="24.34"/>
    <circle cx="555.11" cy="177.82" r="24.34"/>
    <circle cx="555.17" cy="177.99" r="24.34"/>
    <circle cx="555.22" cy="178.17" r="24.34"/>
    <circle cx="555.27" cy="178.34" r="24.34"/>
    <circle cx="555.32" cy="178.52" r="24.34"/>
    <circle cx="555.37" cy="178.7" r="24.34"/>
    <circle cx="555.43" cy="178.88" r="24.34"/>
    <circle cx="555.48" cy="179.06" r="24.34"/>
    <circle cx="555.53" cy="179.24" r="24.34"/>
    <circle cx="555.58" cy="179.43" r="24.34"/>
    <circle cx="555.64" cy="179.61" r="24.34"/>
    <circle cx="555.69" cy="179.8" r="24.34"/>
    <circle cx="555.74" cy="179.98" r="24.34"/>
    <circle cx="555.79" cy="180.17" r="24.34"/>
    <circle cx="555.85" cy="180.36" r="24.34"/>
    <circle cx="560.62" cy="202.95" r="24.34"/>
    <circle cx="555.97" cy="180.79" r="24.34"/>
    <circle cx="556.04" cy="181.04" r="24.34"/>
    <circle cx="556.1" cy="181.29" r="24.34"/>
    <circle cx="556.17" cy="181.54" r="24.34"/>
    <circle cx="556.24" cy="181.79" r="24.34"/>
    <circle cx="556.31" cy="182.05" r="24.34"/>
    <circle cx="556.38" cy="182.31" r="24.34"/>
    <circle cx="556.45" cy="182.56" r="24.34"/>
    <circle cx="556.52" cy="182.82" r="24.34"/>
    <circle cx="556.59" cy="183.09" r="24.34"/>
    <circle cx="556.66" cy="183.35" r="24.34"/>
    <circle cx="556.72" cy="183.62" r="24.34"/>
    <circle cx="556.79" cy="183.88" r="24.34"/>
    <circle cx="556.86" cy="184.15" r="24.34"/>
    <circle cx="556.93" cy="184.42" r="24.34"/>
    <circle cx="557" cy="184.69" r="24.34"/>
    <circle cx="557.07" cy="184.96" r="24.34"/>
    <circle cx="557.14" cy="185.24" r="24.34"/>
    <circle cx="557.21" cy="185.52" r="24.34"/>
    <circle cx="557.28" cy="185.79" r="24.34"/>
    <circle cx="557.34" cy="186.07" r="24.34"/>
    <circle cx="557.41" cy="186.35" r="24.34"/>
    <circle cx="557.48" cy="186.64" r="24.34"/>
    <circle cx="557.55" cy="186.92" r="24.34"/>
    <circle cx="557.62" cy="187.21" r="24.34"/>
    <circle cx="557.69" cy="187.49" r="24.34"/>
    <circle cx="557.75" cy="187.78" r="24.34"/>
    <circle cx="557.82" cy="188.07" r="24.34"/>
    <circle cx="557.89" cy="188.36" r="24.34"/>
    <circle cx="557.96" cy="188.66" r="24.34"/>
    <circle cx="558.02" cy="188.95" r="24.34"/>
    <circle cx="558.09" cy="189.25" r="24.34"/>
    <circle cx="558.16" cy="189.54" r="24.34"/>
    <circle cx="558.22" cy="189.84" r="24.34"/>
    <circle cx="558.29" cy="190.14" r="24.34"/>
    <circle cx="558.36" cy="190.44" r="24.34"/>
    <circle cx="558.42" cy="190.75" r="24.34"/>
    <circle cx="558.49" cy="191.05" r="24.34"/>
    <circle cx="558.55" cy="191.36" r="24.34"/>
    <circle cx="558.62" cy="191.66" r="24.34"/>
    <circle cx="558.68" cy="191.97" r="24.34"/>
    <circle cx="558.75" cy="192.28" r="24.34"/>
    <circle cx="558.81" cy="192.59" r="24.34"/>
    <circle cx="558.88" cy="192.91" r="24.34"/>
    <circle cx="558.94" cy="193.22" r="24.34"/>
    <circle cx="559" cy="193.54" r="24.34"/>
    <circle cx="559.07" cy="193.85" r="24.34"/>
    <circle cx="559.13" cy="194.17" r="24.34"/>
    <circle cx="559.19" cy="194.49" r="24.34"/>
    <circle cx="559.25" cy="194.81" r="24.34"/>
    <circle cx="559.32" cy="195.13" r="24.34"/>
    <circle cx="559.38" cy="195.46" r="24.34"/>
    <circle cx="559.44" cy="195.78" r="24.34"/>
    <circle cx="559.5" cy="196.11" r="24.34"/>
    <circle cx="559.56" cy="196.43" r="24.34"/>
    <circle cx="559.62" cy="196.76" r="24.34"/>
    <circle cx="559.68" cy="197.09" r="24.34"/>
    <circle cx="559.74" cy="197.42" r="24.34"/>
    <circle cx="559.8" cy="197.75" r="24.34"/>
    <circle cx="559.85" cy="198.09" r="24.34"/>
    <circle cx="559.91" cy="198.42" r="24.34"/>
    <circle cx="559.97" cy="198.76" r="24.34"/>
    <circle cx="560.02" cy="199.09" r="24.34"/>
    <circle cx="560.08" cy="199.43" r="24.34"/>
    <circle cx="560.14" cy="199.77" r="24.34"/>
    <circle cx="560.19" cy="200.11" r="24.34"/>
    <circle cx="560.25" cy="200.45" r="24.34"/>
    <circle cx="560.3" cy="200.79" r="24.34"/>
    <circle cx="560.35" cy="201.14" r="24.34"/>
    <circle cx="560.41" cy="201.48" r="24.34"/>
    <circle cx="560.46" cy="201.83" r="24.34"/>
    <circle cx="560.51" cy="202.17" r="24.34"/>
    <circle cx="560.56" cy="202.52" r="24.34"/>
    <circle cx="560.61" cy="202.87" r="24.34"/>
    <circle cx="560.66" cy="203.22" r="24.34"/>
    <circle cx="560.71" cy="203.57" r="24.34"/>
    <circle cx="560.76" cy="203.92" r="24.34"/>
    <circle cx="560.81" cy="204.28" r="24.34"/>
    <circle cx="560.86" cy="204.63" r="24.34"/>
    <circle cx="560.9" cy="204.99" r="24.34"/>
    <circle cx="560.95" cy="205.34" r="24.34"/>
    <circle cx="561" cy="205.7" r="24.34"/>
    <circle cx="561.04" cy="206.06" r="24.34"/>
    <circle cx="561.09" cy="206.42" r="24.34"/>
    <circle cx="561.13" cy="206.78" r="24.34"/>
    <circle cx="561.17" cy="207.14" r="24.34"/>
    <circle cx="561.21" cy="207.5" r="24.34"/>
    <circle cx="561.26" cy="207.86" r="24.34"/>
    <circle cx="561.3" cy="208.23" r="24.34"/>
    <circle cx="561.34" cy="208.59" r="24.34"/>
    <circle cx="561.38" cy="208.96" r="24.34"/>
    <circle cx="561.42" cy="209.33" r="24.34"/>
    <circle cx="561.45" cy="209.69" r="24.34"/>
    <circle cx="561.49" cy="210.06" r="24.34"/>
    <circle cx="561.53" cy="210.43" r="24.34"/>
    <circle cx="561.56" cy="210.8" r="24.34"/>
    <circle cx="561.6" cy="211.18" r="24.34"/>
    <circle cx="561.63" cy="211.55" r="24.34"/>
    <circle cx="561.66" cy="211.92" r="24.34"/>
    <circle cx="561.7" cy="212.3" r="24.34"/>
    <circle cx="561.61" cy="237.77" r="24.34"/>
    <circle cx="561.8" cy="213.59" r="24.34"/>
    <circle cx="561.87" cy="214.52" r="24.34"/>
    <circle cx="561.93" cy="215.46" r="24.34"/>
    <circle cx="561.99" cy="216.41" r="24.34"/>
    <circle cx="562.04" cy="217.35" r="24.34"/>
    <circle cx="562.09" cy="218.3" r="24.34"/>
    <circle cx="562.13" cy="219.26" r="24.34"/>
    <circle cx="562.17" cy="220.22" r="24.34"/>
    <circle cx="562.19" cy="221.19" r="24.34"/>
    <circle cx="562.22" cy="222.15" r="24.34"/>
    <circle cx="562.23" cy="223.13" r="24.34"/>
    <circle cx="562.24" cy="224.1" r="24.34"/>
    <circle cx="562.24" cy="225.08" r="24.34"/>
    <circle cx="562.24" cy="226.06" r="24.34"/>
    <circle cx="562.23" cy="227.05" r="24.34"/>
    <circle cx="562.21" cy="228.04" r="24.34"/>
    <circle cx="562.18" cy="229.03" r="24.34"/>
    <circle cx="562.14" cy="230.02" r="24.34"/>
    <circle cx="562.1" cy="231.02" r="24.34"/>
    <circle cx="562.05" cy="232.02" r="24.34"/>
    <circle cx="562" cy="233.02" r="24.34"/>
    <circle cx="561.93" cy="234.03" r="24.34"/>
    <circle cx="561.86" cy="235.04" r="24.34"/>
    <circle cx="561.77" cy="236.04" r="24.34"/>
    <circle cx="561.68" cy="237.06" r="24.34"/>
    <circle cx="561.58" cy="238.07" r="24.34"/>
    <circle cx="561.48" cy="239.08" r="24.34"/>
    <circle cx="561.36" cy="240.1" r="24.34"/>
    <circle cx="561.23" cy="241.11" r="24.34"/>
    <circle cx="561.1" cy="242.13" r="24.34"/>
    <circle cx="560.95" cy="243.15" r="24.34"/>
    <circle cx="560.8" cy="244.17" r="24.34"/>
    <circle cx="560.64" cy="245.19" r="24.34"/>
    <circle cx="560.46" cy="246.22" r="24.34"/>
    <circle cx="560.28" cy="247.24" r="24.34"/>
    <circle cx="560.09" cy="248.26" r="24.34"/>
    <circle cx="559.88" cy="249.29" r="24.34"/>
    <circle cx="559.67" cy="250.31" r="24.34"/>
    <circle cx="559.45" cy="251.33" r="24.34"/>
    <circle cx="559.21" cy="252.36" r="24.34"/>
    <circle cx="558.97" cy="253.38" r="24.34"/>
    <circle cx="558.71" cy="254.4" r="24.34"/>
    <circle cx="558.44" cy="255.43" r="24.34"/>
    <circle cx="558.17" cy="256.45" r="24.34"/>
    <circle cx="557.88" cy="257.47" r="24.34"/>
    <circle cx="557.57" cy="258.49" r="24.34"/>
    <circle cx="557.26" cy="259.51" r="24.34"/>
    <circle cx="556.94" cy="260.53" r="24.34"/>
    <circle cx="556.6" cy="261.54" r="24.34"/>
    <circle cx="556.25" cy="262.56" r="24.34"/>
    <circle cx="555.89" cy="263.57" r="24.34"/>
    <circle cx="555.52" cy="264.59" r="24.34"/>
    <circle cx="555.14" cy="265.6" r="24.34"/>
    <circle cx="554.74" cy="266.61" r="24.34"/>
    <circle cx="554.33" cy="267.61" r="24.34"/>
    <circle cx="553.91" cy="268.62" r="24.34"/>
    <circle cx="553.47" cy="269.62" r="24.34"/>
    <circle cx="553.02" cy="270.62" r="24.34"/>
    <circle cx="552.56" cy="271.62" r="24.34"/>
    <circle cx="552.08" cy="272.61" r="24.34"/>
    <circle cx="551.6" cy="273.6" r="24.34"/>
    <circle cx="551.09" cy="274.59" r="24.34"/>
    <circle cx="550.58" cy="275.58" r="24.34"/>
    <circle cx="550.05" cy="276.56" r="24.34"/>
    <circle cx="549.5" cy="277.54" r="24.34"/>
    <circle cx="548.94" cy="278.51" r="24.34"/>
    <circle cx="548.37" cy="279.48" r="24.34"/>
    <circle cx="547.78" cy="280.45" r="24.34"/>
    <circle cx="547.18" cy="281.41" r="24.34"/>
    <circle cx="546.56" cy="282.37" r="24.34"/>
    <circle cx="545.93" cy="283.33" r="24.34"/>
    <circle cx="545.28" cy="284.28" r="24.34"/>
    <circle cx="544.62" cy="285.23" r="24.34"/>
    <circle cx="543.95" cy="286.17" r="24.34"/>
    <circle cx="543.25" cy="287.11" r="24.34"/>
    <circle cx="542.54" cy="288.04" r="24.34"/>
    <circle cx="541.82" cy="288.97" r="24.34"/>
    <circle cx="541.08" cy="289.89" r="24.34"/>
    <circle cx="540.32" cy="290.81" r="24.34"/>
    <circle cx="539.55" cy="291.72" r="24.34"/>
    <circle cx="538.76" cy="292.63" r="24.34"/>
    <circle cx="537.96" cy="293.53" r="24.34"/>
    <circle cx="537.13" cy="294.42" r="24.34"/>
    <circle cx="536.3" cy="295.31" r="24.34"/>
    <circle cx="535.44" cy="296.19" r="24.34"/>
    <circle cx="534.57" cy="297.07" r="24.34"/>
    <circle cx="533.68" cy="297.94" r="24.34"/>
    <circle cx="532.77" cy="298.81" r="24.34"/>
    <circle cx="531.85" cy="299.66" r="24.34"/>
    <circle cx="530.91" cy="300.52" r="24.34"/>
    <circle cx="529.95" cy="301.36" r="24.34"/>
    <circle cx="528.97" cy="302.2" r="24.34"/>
    <circle cx="527.97" cy="303.03" r="24.34"/>
    <circle cx="526.96" cy="303.85" r="24.34"/>
    <circle cx="525.93" cy="304.66" r="24.34"/>
    <circle cx="524.88" cy="305.47" r="24.34"/>
    <circle cx="523.81" cy="306.27" r="24.34"/>
    <circle cx="522.72" cy="307.07" r="24.34"/>
    <circle cx="521.62" cy="307.85" r="24.34"/>
    <circle cx="520.49" cy="308.63" r="24.34"/>
    <circle cx="519.35" cy="309.4" r="24.34"/>
  </g>
  <g>
    <circle cx="502.82" cy="162.35" r="24.34"/>
    <circle cx="502.88" cy="164.86" r="24.34"/>
    <circle cx="502.94" cy="167.38" r="24.34"/>
    <circle cx="503" cy="169.89" r="24.34"/>
    <circle cx="503.05" cy="172.41" r="24.34"/>
    <circle cx="503.11" cy="174.92" r="24.34"/>
    <circle cx="503.17" cy="177.44" r="24.34"/>
    <circle cx="503.23" cy="179.95" r="24.34"/>
    <circle cx="503.28" cy="182.47" r="24.34"/>
    <circle cx="503.34" cy="184.98" r="24.34"/>
    <circle cx="503.4" cy="187.5" r="24.34"/>
    <circle cx="503.46" cy="190.01" r="24.34"/>
    <circle cx="503.51" cy="192.53" r="24.34"/>
    <circle cx="503.57" cy="195.05" r="24.34"/>
    <circle cx="503.63" cy="197.56" r="24.34"/>
    <circle cx="503.69" cy="200.08" r="24.34"/>
    <circle cx="503.74" cy="202.59" r="24.34"/>
    <circle cx="503.8" cy="205.11" r="24.34"/>
    <circle cx="503.86" cy="207.62" r="24.34"/>
    <circle cx="503.92" cy="210.14" r="24.34"/>
    <circle cx="503.97" cy="212.65" r="24.34"/>
    <circle cx="504.03" cy="215.17" r="24.34"/>
    <circle cx="504.09" cy="217.68" r="24.34"/>
    <circle cx="504.15" cy="220.2" r="24.34"/>
    <circle cx="504.2" cy="222.72" r="24.34"/>
    <circle cx="504.26" cy="225.23" r="24.34"/>
    <circle cx="504.32" cy="227.75" r="24.34"/>
    <circle cx="504.38" cy="230.26" r="24.34"/>
    <circle cx="504.43" cy="232.78" r="24.34"/>
    <circle cx="504.49" cy="235.29" r="24.34"/>
    <circle cx="504.55" cy="237.81" r="24.34"/>
    <circle cx="504.53" cy="238.6" r="24.34"/>
    <circle cx="504.37" cy="238.69" r="24.34"/>
    <circle cx="504.07" cy="238.85" r="24.34"/>
    <circle cx="503.64" cy="239.07" r="24.34"/>
    <circle cx="503.07" cy="239.35" r="24.34"/>
    <circle cx="502.38" cy="239.69" r="24.34"/>
    <circle cx="501.57" cy="240.07" r="24.34"/>
    <circle cx="500.64" cy="240.49" r="24.34"/>
    <circle cx="499.59" cy="240.94" r="24.34"/>
    <circle cx="498.43" cy="241.43" r="24.34"/>
    <circle cx="497.15" cy="241.94" r="24.34"/>
    <circle cx="495.77" cy="242.46" r="24.34"/>
    <circle cx="494.28" cy="243.01" r="24.34"/>
    <circle cx="492.69" cy="243.55" r="24.34"/>
    <circle cx="491" cy="244.1" r="24.34"/>
    <circle cx="489.22" cy="244.65" r="24.34"/>
    <circle cx="487.34" cy="245.19" r="24.34"/>
    <circle cx="485.37" cy="245.71" r="24.34"/>
    <circle cx="483.31" cy="246.21" r="24.34"/>
    <circle cx="481.17" cy="246.69" r="24.34"/>
    <circle cx="478.95" cy="247.13" r="24.34"/>
    <circle cx="476.65" cy="247.54" r="24.34"/>
    <circle cx="474.28" cy="247.9" r="24.34"/>
    <circle cx="471.83" cy="248.22" r="24.34"/>
    <circle cx="469.32" cy="248.48" r="24.34"/>
    <circle cx="466.74" cy="248.68" r="24.34"/>
    <circle cx="464.1" cy="248.82" r="24.34"/>
    <circle cx="461.39" cy="248.88" r="24.34"/>
    <circle cx="458.63" cy="248.87" r="24.34"/>
    <circle cx="455.82" cy="248.77" r="24.34"/>
    <circle cx="452.95" cy="248.59" r="24.34"/>
    <circle cx="450.04" cy="248.32" r="24.34"/>
    <circle cx="447.09" cy="247.94" r="24.34"/>
    <circle cx="444.09" cy="247.46" r="24.34"/>
    <circle cx="441.05" cy="246.87" r="24.34"/>
    <circle cx="437.98" cy="246.17" r="24.34"/>
    <circle cx="434.87" cy="245.34" r="24.34"/>
    <circle cx="431.74" cy="244.39" r="24.34"/>
    <circle cx="428.57" cy="243.3" r="24.34"/>
    <circle cx="425.39" cy="242.07" r="24.34"/>
    <circle cx="422.18" cy="240.71" r="24.34"/>
    <circle cx="418.96" cy="239.19" r="24.34"/>
    <circle cx="415.72" cy="237.51" r="24.34"/>
    <circle cx="412.47" cy="235.68" r="24.34"/>
    <circle cx="409.22" cy="233.68" r="24.34"/>
    <circle cx="405.95" cy="231.51" r="24.34"/>
    <circle cx="402.69" cy="229.16" r="24.34"/>
    <circle cx="399.43" cy="226.63" r="24.34"/>
    <circle cx="396.16" cy="223.9" r="24.34"/>
    <circle cx="392.91" cy="220.99" r="24.34"/>
    <circle cx="389.67" cy="217.87" r="24.34"/>
    <circle cx="386.43" cy="214.55" r="24.34"/>
    <circle cx="384.48" cy="212.42" r="24.34"/>
    <circle cx="382.8" cy="210.5" r="24.34"/>
    <circle cx="381.18" cy="208.56" r="24.34"/>
    <circle cx="379.62" cy="206.61" r="24.34"/>
    <circle cx="378.12" cy="204.64" r="24.34"/>
    <circle cx="376.6" cy="202.53" r="24.34"/>
    <circle cx="375.18" cy="200.21" r="24.34"/>
    <circle cx="374.01" cy="197.84" r="24.34"/>
    <circle cx="373.07" cy="195.42" r="24.34"/>
    <circle cx="372.36" cy="192.97" r="24.34"/>
    <circle cx="371.88" cy="190.51" r="24.34"/>
    <circle cx="371.62" cy="188.05" r="24.34"/>
    <circle cx="371.56" cy="185.59" r="24.34"/>
    <circle cx="371.72" cy="183.15" r="24.34"/>
    <circle cx="372.07" cy="180.74" r="24.34"/>
    <circle cx="372.62" cy="178.37" r="24.34"/>
    <circle cx="373.35" cy="176.06" r="24.34"/>
    <circle cx="374.26" cy="173.82" r="24.34"/>
    <circle cx="375.38" cy="171.61" r="24.34"/>
    <circle cx="375.5" cy="171.4" r="24.34"/>
    <circle cx="375.65" cy="171.13" r="24.34"/>
    <circle cx="375.8" cy="170.87" r="24.34"/>
    <circle cx="375.96" cy="170.61" r="24.34"/>
    <circle cx="376.11" cy="170.36" r="24.34"/>
    <circle cx="376.27" cy="170.1" r="24.34"/>
    <circle cx="376.44" cy="169.84" r="24.34"/>
    <circle cx="376.6" cy="169.59" r="24.34"/>
    <circle cx="376.77" cy="169.34" r="24.34"/>
    <circle cx="376.94" cy="169.09" r="24.34"/>
    <circle cx="377.12" cy="168.84" r="24.34"/>
    <circle cx="377.29" cy="168.59" r="24.34"/>
    <circle cx="377.47" cy="168.35" r="24.34"/>
    <circle cx="377.65" cy="168.11" r="24.34"/>
    <circle cx="377.84" cy="167.87" r="24.34"/>
    <circle cx="378.02" cy="167.63" r="24.34"/>
    <circle cx="378.21" cy="167.39" r="24.34"/>
    <circle cx="378.4" cy="167.15" r="24.34"/>
    <circle cx="378.59" cy="166.92" r="24.34"/>
    <circle cx="378.79" cy="166.69" r="24.34"/>
    <circle cx="378.99" cy="166.46" r="24.34"/>
    <circle cx="379.19" cy="166.23" r="24.34"/>
    <circle cx="379.39" cy="166" r="24.34"/>
    <circle cx="379.6" cy="165.78" r="24.34"/>
    <circle cx="379.8" cy="165.55" r="24.34"/>
    <circle cx="380.01" cy="165.33" r="24.34"/>
    <circle cx="380.22" cy="165.12" r="24.34"/>
    <circle cx="380.44" cy="164.9" r="24.34"/>
    <circle cx="380.66" cy="164.68" r="24.34"/>
    <circle cx="380.87" cy="164.47" r="24.34"/>
    <circle cx="381.09" cy="164.26" r="24.34"/>
    <circle cx="381.32" cy="164.05" r="24.34"/>
    <circle cx="381.54" cy="163.85" r="24.34"/>
    <circle cx="381.77" cy="163.65" r="24.34"/>
    <circle cx="382" cy="163.44" r="24.34"/>
    <circle cx="382.23" cy="163.25" r="24.34"/>
    <circle cx="382.47" cy="163.05" r="24.34"/>
    <circle cx="382.71" cy="162.86" r="24.34"/>
    <circle cx="382.94" cy="162.66" r="24.34"/>
    <circle cx="383.18" cy="162.47" r="24.34"/>
    <circle cx="383.43" cy="162.29" r="24.34"/>
    <circle cx="383.67" cy="162.1" r="24.34"/>
    <circle cx="383.92" cy="161.92" r="24.34"/>
    <circle cx="384.17" cy="161.74" r="24.34"/>
    <circle cx="384.42" cy="161.56" r="24.34"/>
    <circle cx="384.68" cy="161.39" r="24.34"/>
    <circle cx="384.93" cy="161.22" r="24.34"/>
    <circle cx="385.19" cy="161.05" r="24.34"/>
    <circle cx="385.45" cy="160.88" r="24.34"/>
    <circle cx="385.71" cy="160.71" r="24.34"/>
    <circle cx="385.97" cy="160.55" r="24.34"/>
    <circle cx="386.24" cy="160.39" r="24.34"/>
    <circle cx="386.51" cy="160.24" r="24.34"/>
    <circle cx="386.78" cy="160.08" r="24.34"/>
    <circle cx="387.05" cy="159.93" r="24.34"/>
    <circle cx="387.32" cy="159.78" r="24.34"/>
    <circle cx="387.6" cy="159.64" r="24.34"/>
    <circle cx="387.88" cy="159.49" r="24.34"/>
    <circle cx="388.16" cy="159.35" r="24.34"/>
    <circle cx="388.44" cy="159.21" r="24.34"/>
    <circle cx="388.72" cy="159.08" r="24.34"/>
    <circle cx="389.01" cy="158.95" r="24.34"/>
    <circle cx="389.29" cy="158.82" r="24.34"/>
    <circle cx="389.58" cy="158.69" r="24.34"/>
    <circle cx="389.87" cy="158.57" r="24.34"/>
    <circle cx="390.17" cy="158.45" r="24.34"/>
    <circle cx="390.46" cy="158.33" r="24.34"/>
    <circle cx="390.76" cy="158.22" r="24.34"/>
    <circle cx="391.06" cy="158.11" r="24.34"/>
    <circle cx="391.36" cy="158" r="24.34"/>
    <circle cx="391.66" cy="157.9" r="24.34"/>
    <circle cx="391.96" cy="157.79" r="24.34"/>
    <circle cx="392.27" cy="157.7" r="24.34"/>
    <circle cx="392.57" cy="157.6" r="24.34"/>
    <circle cx="392.88" cy="157.51" r="24.34"/>
    <circle cx="393.19" cy="157.42" r="24.34"/>
    <circle cx="393.5" cy="157.33" r="24.34"/>
    <circle cx="393.82" cy="157.25" r="24.34"/>
    <circle cx="394.13" cy="157.17" r="24.34"/>
    <circle cx="394.45" cy="157.1" r="24.34"/>
    <circle cx="394.77" cy="157.02" r="24.34"/>
    <circle cx="395.09" cy="156.95" r="24.34"/>
    <circle cx="395.41" cy="156.89" r="24.34"/>
    <circle cx="395.74" cy="156.83" r="24.34"/>
    <circle cx="396.06" cy="156.77" r="24.34"/>
    <circle cx="396.39" cy="156.71" r="24.34"/>
    <circle cx="396.72" cy="156.66" r="24.34"/>
    <circle cx="397.05" cy="156.61" r="24.34"/>
    <circle cx="397.38" cy="156.57" r="24.34"/>
    <circle cx="397.71" cy="156.52" r="24.34"/>
    <circle cx="398.05" cy="156.49" r="24.34"/>
    <circle cx="398.38" cy="156.45" r="24.34"/>
    <circle cx="398.72" cy="156.42" r="24.34"/>
    <circle cx="399.06" cy="156.39" r="24.34"/>
    <circle cx="399.4" cy="156.37" r="24.34"/>
    <circle cx="399.74" cy="156.35" r="24.34"/>
    <circle cx="400.09" cy="156.33" r="24.34"/>
    <circle cx="400.43" cy="156.32" r="24.34"/>
    <circle cx="400.78" cy="156.31" r="24.34"/>
    <circle cx="401.13" cy="156.31" r="24.34"/>
    <circle cx="401.48" cy="156.31" r="24.34"/>
    <circle cx="402.54" cy="156.33" r="24.34"/>
    <circle cx="403.58" cy="156.38" r="24.34"/>
    <circle cx="404.62" cy="156.47" r="24.34"/>
    <circle cx="405.64" cy="156.6" r="24.34"/>
    <circle cx="406.65" cy="156.75" r="24.34"/>
    <circle cx="407.64" cy="156.94" r="24.34"/>
    <circle cx="408.61" cy="157.16" r="24.34"/>
    <circle cx="409.58" cy="157.41" r="24.34"/>
    <circle cx="410.52" cy="157.7" r="24.34"/>
    <circle cx="411.45" cy="158.01" r="24.34"/>
    <circle cx="412.37" cy="158.35" r="24.34"/>
    <circle cx="413.26" cy="158.72" r="24.34"/>
    <circle cx="414.14" cy="159.11" r="24.34"/>
    <circle cx="415" cy="159.54" r="24.34"/>
    <circle cx="415.85" cy="159.99" r="24.34"/>
    <circle cx="416.68" cy="160.46" r="24.34"/>
    <circle cx="417.48" cy="160.96" r="24.34"/>
    <circle cx="418.27" cy="161.49" r="24.34"/>
    <circle cx="419.04" cy="162.04" r="24.34"/>
    <circle cx="419.79" cy="162.61" r="24.34"/>
    <circle cx="420.52" cy="163.2" r="24.34"/>
    <circle cx="421.23" cy="163.82" r="24.34"/>
    <circle cx="421.92" cy="164.45" r="24.34"/>
    <circle cx="422.58" cy="165.11" r="24.34"/>
    <circle cx="423.23" cy="165.79" r="24.34"/>
    <circle cx="423.85" cy="166.48" r="24.34"/>
    <circle cx="424.45" cy="167.2" r="24.34"/>
    <circle cx="425.03" cy="167.93" r="24.34"/>
    <circle cx="425.59" cy="168.67" r="24.34"/>
    <circle cx="426.12" cy="169.44" r="24.34"/>
    <circle cx="426.63" cy="170.22" r="24.34"/>
    <circle cx="427.11" cy="171.01" r="24.34"/>
    <circle cx="427.57" cy="171.82" r="24.34"/>
    <circle cx="428" cy="172.64" r="24.34"/>
    <circle cx="428.41" cy="173.48" r="24.34"/>
    <circle cx="428.79" cy="174.33" r="24.34"/>
    <circle cx="429.15" cy="175.19" r="24.34"/>
    <circle cx="429.48" cy="176.06" r="24.34"/>
    <circle cx="429.79" cy="176.94" r="24.34"/>
    <circle cx="430.06" cy="177.83" r="24.34"/>
    <circle cx="430.31" cy="178.72" r="24.34"/>
    <circle cx="430.53" cy="179.63" r="24.34"/>
    <circle cx="430.73" cy="180.55" r="24.34"/>
    <circle cx="430.89" cy="181.47" r="24.34"/>
    <circle cx="431.03" cy="182.39" r="24.34"/>
    <circle cx="431.13" cy="183.33" r="24.34"/>
    <circle cx="431.21" cy="184.26" r="24.34"/>
    <circle cx="431.25" cy="185.2" r="24.34"/>
    <circle cx="431.27" cy="186.15" r="24.34"/>
    <circle cx="431.25" cy="187.1" r="24.34"/>
    <circle cx="431.21" cy="188.05" r="24.34"/>
    <circle cx="431.13" cy="189" r="24.34"/>
    <circle cx="431.02" cy="189.95" r="24.34"/>
    <circle cx="430.88" cy="190.9" r="24.34"/>
    <circle cx="430.7" cy="191.85" r="24.34"/>
    <circle cx="430.49" cy="192.8" r="24.34"/>
    <circle cx="430.25" cy="193.75" r="24.34"/>
    <circle cx="429.97" cy="194.7" r="24.34"/>
    <circle cx="429.66" cy="195.64" r="24.34"/>
    <circle cx="429.32" cy="196.58" r="24.34"/>
    <circle cx="428.94" cy="197.51" r="24.34"/>
    <circle cx="428.52" cy="198.44" r="24.34"/>
    <circle cx="428.07" cy="199.36" r="24.34"/>
    <circle cx="427.59" cy="200.28" r="24.34"/>
    <circle cx="427.06" cy="201.19" r="24.34"/>
    <circle cx="426.5" cy="202.09" r="24.34"/>
    <circle cx="426.13" cy="202.67" r="24.34"/>
    <circle cx="425.75" cy="203.24" r="24.34"/>
    <circle cx="425.36" cy="203.82" r="24.34"/>
    <circle cx="424.97" cy="204.39" r="24.34"/>
    <circle cx="424.58" cy="204.96" r="24.34"/>
    <circle cx="424.18" cy="205.54" r="24.34"/>
    <circle cx="423.78" cy="206.11" r="24.34"/>
    <circle cx="423.37" cy="206.68" r="24.34"/>
    <circle cx="422.95" cy="207.26" r="24.34"/>
    <circle cx="422.53" cy="207.83" r="24.34"/>
    <circle cx="422.11" cy="208.4" r="24.34"/>
    <circle cx="421.68" cy="208.97" r="24.34"/>
    <circle cx="421.25" cy="209.54" r="24.34"/>
    <circle cx="420.8" cy="210.1" r="24.34"/>
    <circle cx="420.36" cy="210.67" r="24.34"/>
    <circle cx="419.91" cy="211.23" r="24.34"/>
    <circle cx="419.45" cy="211.8" r="24.34"/>
    <circle cx="418.99" cy="212.36" r="24.34"/>
    <circle cx="418.52" cy="212.92" r="24.34"/>
    <circle cx="418.05" cy="213.48" r="24.34"/>
    <circle cx="417.57" cy="214.04" r="24.34"/>
    <circle cx="417.09" cy="214.6" r="24.34"/>
    <circle cx="416.6" cy="215.15" r="24.34"/>
    <circle cx="416.1" cy="215.7" r="24.34"/>
    <circle cx="415.6" cy="216.25" r="24.34"/>
    <circle cx="415.1" cy="216.8" r="24.34"/>
    <circle cx="414.58" cy="217.35" r="24.34"/>
    <circle cx="414.07" cy="217.89" r="24.34"/>
    <circle cx="413.54" cy="218.44" r="24.34"/>
    <circle cx="413.01" cy="218.98" r="24.34"/>
    <circle cx="412.48" cy="219.51" r="24.34"/>
    <circle cx="411.94" cy="220.05" r="24.34"/>
    <circle cx="411.39" cy="220.58" r="24.34"/>
    <circle cx="410.84" cy="221.11" r="24.34"/>
    <circle cx="403.98" cy="227.05" r="24.34"/>
    <circle cx="408.76" cy="223.03" r="24.34"/>
    <circle cx="407.2" cy="224.4" r="24.34"/>
    <circle cx="405.6" cy="225.75" r="24.34"/>
    <circle cx="403.95" cy="227.07" r="24.34"/>
    <circle cx="402.26" cy="228.37" r="24.34"/>
    <circle cx="400.52" cy="229.64" r="24.34"/>
    <circle cx="398.74" cy="230.88" r="24.34"/>
    <circle cx="396.91" cy="232.09" r="24.34"/>
    <circle cx="395.03" cy="233.27" r="24.34"/>
    <circle cx="393.11" cy="234.41" r="24.34"/>
    <circle cx="391.14" cy="235.52" r="24.34"/>
    <circle cx="389.12" cy="236.59" r="24.34"/>
    <circle cx="387.05" cy="237.62" r="24.34"/>
    <circle cx="384.93" cy="238.62" r="24.34"/>
    <circle cx="382.76" cy="239.57" r="24.34"/>
    <circle cx="380.54" cy="240.48" r="24.34"/>
    <circle cx="378.27" cy="241.35" r="24.34"/>
    <circle cx="375.94" cy="242.17" r="24.34"/>
    <circle cx="373.57" cy="242.94" r="24.34"/>
    <circle cx="371.14" cy="243.67" r="24.34"/>
    <circle cx="368.65" cy="244.34" r="24.34"/>
    <circle cx="366.12" cy="244.96" r="24.34"/>
    <circle cx="363.53" cy="245.53" r="24.34"/>
    <circle cx="360.88" cy="246.05" r="24.34"/>
    <circle cx="358.18" cy="246.5" r="24.34"/>
    <circle cx="355.42" cy="246.9" r="24.34"/>
    <circle cx="352.6" cy="247.24" r="24.34"/>
    <circle cx="349.72" cy="247.52" r="24.34"/>
    <circle cx="346.79" cy="247.74" r="24.34"/>
    <circle cx="343.8" cy="247.89" r="24.34"/>
    <circle cx="340.75" cy="247.98" r="24.34"/>
    <circle cx="337.64" cy="248" r="24.34"/>
    <circle cx="334.47" cy="247.95" r="24.34"/>
    <circle cx="331.24" cy="247.83" r="24.34"/>
    <circle cx="327.94" cy="247.64" r="24.34"/>
    <circle cx="324.59" cy="247.37" r="24.34"/>
    <circle cx="321.17" cy="247.04" r="24.34"/>
    <circle cx="317.69" cy="246.62" r="24.34"/>
    <circle cx="314.14" cy="246.13" r="24.34"/>
    <circle cx="310.53" cy="245.56" r="24.34"/>
    <circle cx="306.86" cy="244.9" r="24.34"/>
    <circle cx="303.11" cy="244.17" r="24.34"/>
    <circle cx="299.31" cy="243.35" r="24.34"/>
    <circle cx="296.56" cy="241.98" r="24.34"/>
    <circle cx="296.6" cy="239.41" r="24.34"/>
    <circle cx="296.64" cy="236.83" r="24.34"/>
    <circle cx="296.67" cy="234.26" r="24.34"/>
    <circle cx="296.71" cy="231.69" r="24.34"/>
    <circle cx="296.75" cy="229.12" r="24.34"/>
    <circle cx="296.79" cy="226.55" r="24.34"/>
    <circle cx="296.83" cy="223.97" r="24.34"/>
    <circle cx="296.87" cy="221.4" r="24.34"/>
    <circle cx="296.91" cy="218.83" r="24.34"/>
    <circle cx="296.95" cy="216.26" r="24.34"/>
    <circle cx="296.99" cy="213.69" r="24.34"/>
    <circle cx="297.03" cy="211.11" r="24.34"/>
    <circle cx="297.06" cy="208.54" r="24.34"/>
    <circle cx="297.1" cy="205.97" r="24.34"/>
    <circle cx="297.14" cy="203.4" r="24.34"/>
    <circle cx="297.18" cy="200.83" r="24.34"/>
    <circle cx="297.22" cy="198.25" r="24.34"/>
    <circle cx="297.26" cy="195.68" r="24.34"/>
    <circle cx="297.3" cy="193.11" r="24.34"/>
    <circle cx="297.34" cy="190.54" r="24.34"/>
    <circle cx="297.38" cy="187.97" r="24.34"/>
    <circle cx="297.42" cy="185.39" r="24.34"/>
    <circle cx="297.45" cy="182.82" r="24.34"/>
    <circle cx="297.49" cy="180.25" r="24.34"/>
    <circle cx="297.53" cy="177.68" r="24.34"/>
    <circle cx="297.57" cy="175.11" r="24.34"/>
    <circle cx="297.61" cy="172.53" r="24.34"/>
    <circle cx="297.65" cy="169.96" r="24.34"/>
    <circle cx="297.69" cy="167.39" r="24.34"/>
    <circle cx="297.73" cy="164.82" r="24.34"/>
    <circle cx="297.77" cy="162.25" r="24.34"/>
    <circle cx="297.8" cy="159.67" r="24.34"/>
    <circle cx="297.84" cy="157.1" r="24.34"/>
    <circle cx="297.88" cy="154.53" r="24.34"/>
    <circle cx="297.92" cy="151.96" r="24.34"/>
    <circle cx="297.96" cy="149.39" r="24.34"/>
    <circle cx="298" cy="146.81" r="24.34"/>
    <circle cx="298.04" cy="144.24" r="24.34"/>
    <circle cx="298.08" cy="141.67" r="24.34"/>
    <circle cx="298.12" cy="139.1" r="24.34"/>
    <circle cx="298.16" cy="136.53" r="24.34"/>
    <circle cx="298.19" cy="133.95" r="24.34"/>
    <circle cx="298.23" cy="131.38" r="24.34"/>
    <circle cx="298.27" cy="128.81" r="24.34"/>
    <circle cx="298.31" cy="126.24" r="24.34"/>
    <circle cx="298.35" cy="123.66" r="24.34"/>
    <circle cx="298.39" cy="121.09" r="24.34"/>
    <circle cx="298.43" cy="118.52" r="24.34"/>
    <circle cx="298.47" cy="115.95" r="24.34"/>
    <circle cx="298.51" cy="113.38" r="24.34"/>
    <circle cx="298.55" cy="110.8" r="24.34"/>
    <circle cx="298.58" cy="108.23" r="24.34"/>
    <circle cx="298.62" cy="105.66" r="24.34"/>
    <circle cx="298.66" cy="103.09" r="24.34"/>
    <circle cx="298.7" cy="100.52" r="24.34"/>
    <circle cx="298.74" cy="97.94" r="24.34"/>
    <circle cx="298.78" cy="95.37" r="24.34"/>
  </g>
  <g>
    <circle cx="236.27" cy="95.37" r="24.34"/>
    <circle cx="236.32" cy="96.04" r="24.34"/>
    <circle cx="236.37" cy="96.71" r="24.34"/>
    <circle cx="236.42" cy="97.38" r="24.34"/>
    <circle cx="236.47" cy="98.05" r="24.34"/>
    <circle cx="236.51" cy="98.72" r="24.34"/>
    <circle cx="236.56" cy="99.38" r="24.34"/>
    <circle cx="236.61" cy="100.05" r="24.34"/>
    <circle cx="236.66" cy="100.72" r="24.34"/>
    <circle cx="236.71" cy="101.39" r="24.34"/>
    <circle cx="236.76" cy="102.06" r="24.34"/>
    <circle cx="236.81" cy="102.73" r="24.34"/>
    <circle cx="236.86" cy="103.4" r="24.34"/>
    <circle cx="236.91" cy="104.07" r="24.34"/>
    <circle cx="236.95" cy="104.73" r="24.34"/>
    <circle cx="237" cy="105.4" r="24.34"/>
    <circle cx="237.05" cy="106.07" r="24.34"/>
    <circle cx="237.1" cy="106.74" r="24.34"/>
    <circle cx="237.15" cy="107.41" r="24.34"/>
    <circle cx="237.2" cy="108.08" r="24.34"/>
    <circle cx="237.25" cy="108.75" r="24.34"/>
    <circle cx="237.3" cy="109.41" r="24.34"/>
    <circle cx="237.34" cy="110.08" r="24.34"/>
    <circle cx="237.39" cy="110.75" r="24.34"/>
    <circle cx="237.44" cy="111.42" r="24.34"/>
    <circle cx="237.49" cy="112.09" r="24.34"/>
    <circle cx="237.54" cy="112.76" r="24.34"/>
    <circle cx="237.59" cy="113.43" r="24.34"/>
    <circle cx="237.64" cy="114.09" r="24.34"/>
    <circle cx="237.69" cy="114.76" r="24.34"/>
    <circle cx="237.73" cy="115.43" r="24.34"/>
    <circle cx="237.78" cy="116.1" r="24.34"/>
    <circle cx="237.83" cy="116.77" r="24.34"/>
    <circle cx="237.88" cy="117.44" r="24.34"/>
    <circle cx="237.93" cy="118.11" r="24.34"/>
    <circle cx="237.98" cy="118.78" r="24.34"/>
    <circle cx="238.03" cy="119.44" r="24.34"/>
    <circle cx="238.08" cy="120.11" r="24.34"/>
    <circle cx="238.12" cy="120.78" r="24.34"/>
    <circle cx="238.17" cy="121.45" r="24.34"/>
    <circle cx="238.22" cy="122.12" r="24.34"/>
    <circle cx="238.27" cy="122.79" r="24.34"/>
    <circle cx="238.32" cy="123.46" r="24.34"/>
    <circle cx="238.37" cy="124.12" r="24.34"/>
    <circle cx="238.42" cy="124.79" r="24.34"/>
    <circle cx="238.47" cy="125.46" r="24.34"/>
    <circle cx="238.51" cy="126.13" r="24.34"/>
    <circle cx="238.56" cy="126.8" r="24.34"/>
    <circle cx="238.61" cy="127.47" r="24.34"/>
    <circle cx="238.66" cy="128.14" r="24.34"/>
    <circle cx="238.71" cy="128.81" r="24.34"/>
    <circle cx="238.76" cy="129.47" r="24.34"/>
    <circle cx="238.81" cy="130.14" r="24.34"/>
    <circle cx="238.86" cy="130.81" r="24.34"/>
    <circle cx="238.9" cy="131.48" r="24.34"/>
    <circle cx="238.95" cy="132.15" r="24.34"/>
    <circle cx="239" cy="132.82" r="24.34"/>
    <circle cx="239.05" cy="133.49" r="24.34"/>
    <circle cx="239.1" cy="134.15" r="24.34"/>
    <circle cx="239.15" cy="134.82" r="24.34"/>
    <circle cx="239.2" cy="135.49" r="24.34"/>
    <circle cx="239.25" cy="136.16" r="24.34"/>
    <circle cx="239.29" cy="136.83" r="24.34"/>
    <circle cx="239.34" cy="137.5" r="24.34"/>
    <circle cx="239.39" cy="138.17" r="24.34"/>
    <circle cx="239.44" cy="138.83" r="24.34"/>
    <circle cx="239.49" cy="139.5" r="24.34"/>
    <circle cx="239.54" cy="140.17" r="24.34"/>
    <circle cx="239.59" cy="140.84" r="24.34"/>
    <circle cx="239.64" cy="141.51" r="24.34"/>
    <circle cx="239.68" cy="142.18" r="24.34"/>
    <circle cx="239.73" cy="142.85" r="24.34"/>
    <circle cx="239.78" cy="143.52" r="24.34"/>
    <circle cx="239.83" cy="144.18" r="24.34"/>
    <circle cx="239.88" cy="144.85" r="24.34"/>
    <circle cx="239.93" cy="145.52" r="24.34"/>
    <circle cx="239.98" cy="146.19" r="24.34"/>
    <circle cx="240.03" cy="146.86" r="24.34"/>
    <circle cx="240.07" cy="147.53" r="24.34"/>
    <circle cx="240.12" cy="148.2" r="24.34"/>
    <circle cx="240.17" cy="148.86" r="24.34"/>
    <circle cx="240.22" cy="149.53" r="24.34"/>
    <circle cx="240.27" cy="150.2" r="24.34"/>
    <circle cx="240.32" cy="150.87" r="24.34"/>
    <circle cx="240.37" cy="151.54" r="24.34"/>
    <circle cx="240.42" cy="152.21" r="24.34"/>
    <circle cx="240.46" cy="152.88" r="24.34"/>
    <circle cx="240.51" cy="153.55" r="24.34"/>
    <circle cx="240.56" cy="154.21" r="24.34"/>
    <circle cx="240.61" cy="154.88" r="24.34"/>
    <circle cx="240.66" cy="155.55" r="24.34"/>
    <circle cx="240.71" cy="156.22" r="24.34"/>
    <circle cx="240.76" cy="156.89" r="24.34"/>
    <circle cx="240.81" cy="157.56" r="24.34"/>
    <circle cx="240.85" cy="158.23" r="24.34"/>
    <circle cx="240.9" cy="158.89" r="24.34"/>
    <circle cx="240.95" cy="159.56" r="24.34"/>
    <circle cx="241" cy="160.23" r="24.34"/>
    <circle cx="241.05" cy="160.9" r="24.34"/>
    <circle cx="241.1" cy="161.57" r="24.34"/>
    <circle cx="241.15" cy="162.24" r="24.34"/>
    <circle cx="241.2" cy="162.91" r="24.34"/>
    <circle cx="241.24" cy="163.51" r="24.34"/>
    <circle cx="241.28" cy="164.12" r="24.34"/>
    <circle cx="241.33" cy="164.72" r="24.34"/>
    <circle cx="241.37" cy="165.33" r="24.34"/>
    <circle cx="241.42" cy="165.94" r="24.34"/>
    <circle cx="241.46" cy="166.54" r="24.34"/>
    <circle cx="241.5" cy="167.15" r="24.34"/>
    <circle cx="241.55" cy="167.75" r="24.34"/>
    <circle cx="241.59" cy="168.36" r="24.34"/>
    <circle cx="241.64" cy="168.96" r="24.34"/>
    <circle cx="241.68" cy="169.57" r="24.34"/>
    <circle cx="241.73" cy="170.18" r="24.34"/>
    <circle cx="241.77" cy="170.78" r="24.34"/>
    <circle cx="241.81" cy="171.39" r="24.34"/>
    <circle cx="241.86" cy="171.99" r="24.34"/>
    <circle cx="241.9" cy="172.6" r="24.34"/>
    <circle cx="241.95" cy="173.2" r="24.34"/>
    <circle cx="241.99" cy="173.81" r="24.34"/>
    <circle cx="242.03" cy="174.42" r="24.34"/>
    <circle cx="242.08" cy="175.02" r="24.34"/>
    <circle cx="242.12" cy="175.63" r="24.34"/>
    <circle cx="242.17" cy="176.23" r="24.34"/>
    <circle cx="242.21" cy="176.84" r="24.34"/>
    <circle cx="242.26" cy="177.45" r="24.34"/>
    <circle cx="242.3" cy="178.05" r="24.34"/>
    <circle cx="242.34" cy="178.66" r="24.34"/>
    <circle cx="242.39" cy="179.26" r="24.34"/>
    <circle cx="242.43" cy="179.87" r="24.34"/>
    <circle cx="242.48" cy="180.47" r="24.34"/>
    <circle cx="242.52" cy="181.08" r="24.34"/>
    <circle cx="242.56" cy="181.69" r="24.34"/>
    <circle cx="242.61" cy="182.29" r="24.34"/>
    <circle cx="242.65" cy="182.9" r="24.34"/>
    <circle cx="242.7" cy="183.5" r="24.34"/>
    <circle cx="242.74" cy="184.11" r="24.34"/>
    <circle cx="242.79" cy="184.72" r="24.34"/>
    <circle cx="242.83" cy="185.32" r="24.34"/>
    <circle cx="242.87" cy="185.93" r="24.34"/>
    <circle cx="242.92" cy="186.53" r="24.34"/>
    <circle cx="242.96" cy="187.14" r="24.34"/>
    <circle cx="243.01" cy="187.74" r="24.34"/>
    <circle cx="243.05" cy="188.35" r="24.34"/>
    <circle cx="243.09" cy="188.96" r="24.34"/>
    <circle cx="243.14" cy="189.56" r="24.34"/>
    <circle cx="243.18" cy="190.17" r="24.34"/>
    <circle cx="243.23" cy="190.77" r="24.34"/>
    <circle cx="243.27" cy="191.38" r="24.34"/>
    <circle cx="243.32" cy="191.98" r="24.34"/>
    <circle cx="243.36" cy="192.59" r="24.34"/>
    <circle cx="243.4" cy="193.2" r="24.34"/>
    <circle cx="243.45" cy="193.8" r="24.34"/>
    <circle cx="243.49" cy="194.41" r="24.34"/>
    <circle cx="243.54" cy="195.01" r="24.34"/>
    <circle cx="243.58" cy="195.62" r="24.34"/>
    <circle cx="243.63" cy="196.23" r="24.34"/>
    <circle cx="243.67" cy="196.83" r="24.34"/>
    <circle cx="243.71" cy="197.44" r="24.34"/>
    <circle cx="243.76" cy="198.04" r="24.34"/>
    <circle cx="243.8" cy="198.65" r="24.34"/>
    <circle cx="243.85" cy="199.25" r="24.34"/>
    <circle cx="243.89" cy="199.86" r="24.34"/>
    <circle cx="243.93" cy="200.47" r="24.34"/>
    <circle cx="243.98" cy="201.07" r="24.34"/>
    <circle cx="244.02" cy="201.68" r="24.34"/>
    <circle cx="244.07" cy="202.28" r="24.34"/>
    <circle cx="244.11" cy="202.89" r="24.34"/>
    <circle cx="244.16" cy="203.5" r="24.34"/>
    <circle cx="244.2" cy="204.1" r="24.34"/>
    <circle cx="244.24" cy="204.71" r="24.34"/>
    <circle cx="244.29" cy="205.31" r="24.34"/>
    <circle cx="244.33" cy="205.92" r="24.34"/>
    <circle cx="244.38" cy="206.52" r="24.34"/>
    <circle cx="244.42" cy="207.13" r="24.34"/>
    <circle cx="244.46" cy="207.74" r="24.34"/>
    <circle cx="244.51" cy="208.34" r="24.34"/>
    <circle cx="244.55" cy="208.95" r="24.34"/>
    <circle cx="244.6" cy="209.55" r="24.34"/>
    <circle cx="244.64" cy="210.16" r="24.34"/>
    <circle cx="244.69" cy="210.76" r="24.34"/>
    <circle cx="244.73" cy="211.37" r="24.34"/>
    <circle cx="244.77" cy="211.98" r="24.34"/>
    <circle cx="244.82" cy="212.58" r="24.34"/>
    <circle cx="244.86" cy="213.19" r="24.34"/>
    <circle cx="244.91" cy="213.79" r="24.34"/>
    <circle cx="244.95" cy="214.4" r="24.34"/>
    <circle cx="244.99" cy="215.01" r="24.34"/>
    <circle cx="245.04" cy="215.61" r="24.34"/>
    <circle cx="245.08" cy="216.22" r="24.34"/>
    <circle cx="245.13" cy="216.82" r="24.34"/>
    <circle cx="245.17" cy="217.43" r="24.34"/>
    <circle cx="245.22" cy="218.03" r="24.34"/>
    <circle cx="245.26" cy="218.64" r="24.34"/>
    <circle cx="245.3" cy="219.25" r="24.34"/>
    <circle cx="245.35" cy="219.85" r="24.34"/>
    <circle cx="245.39" cy="220.46" r="24.34"/>
    <circle cx="245.44" cy="221.06" r="24.34"/>
    <circle cx="245.48" cy="221.67" r="24.34"/>
    <circle cx="245.52" cy="222.27" r="24.34"/>
    <circle cx="245.57" cy="222.88" r="24.34"/>
    <circle cx="245.61" cy="223.49" r="24.34"/>
    <circle cx="245.66" cy="224.09" r="24.34"/>
    <circle cx="245.71" cy="224.82" r="24.34"/>
    <circle cx="245.74" cy="225.55" r="24.34"/>
    <circle cx="245.77" cy="226.28" r="24.34"/>
    <circle cx="245.79" cy="227.01" r="24.34"/>
    <circle cx="245.79" cy="227.73" r="24.34"/>
    <circle cx="245.79" cy="228.46" r="24.34"/>
    <circle cx="245.77" cy="229.18" r="24.34"/>
    <circle cx="245.75" cy="229.9" r="24.34"/>
    <circle cx="245.71" cy="230.61" r="24.34"/>
    <circle cx="245.67" cy="231.33" r="24.34"/>
    <circle cx="245.61" cy="232.04" r="24.34"/>
    <circle cx="245.55" cy="232.75" r="24.34"/>
    <circle cx="245.47" cy="233.46" r="24.34"/>
    <circle cx="245.39" cy="234.16" r="24.34"/>
    <circle cx="245.29" cy="234.87" r="24.34"/>
    <circle cx="245.19" cy="235.57" r="24.34"/>
    <circle cx="245.07" cy="236.27" r="24.34"/>
    <circle cx="244.95" cy="236.96" r="24.34"/>
    <circle cx="244.82" cy="237.65" r="24.34"/>
    <circle cx="244.67" cy="238.34" r="24.34"/>
    <circle cx="244.52" cy="239.03" r="24.34"/>
    <circle cx="244.36" cy="239.71" r="24.34"/>
    <circle cx="244.19" cy="240.39" r="24.34"/>
    <circle cx="244.01" cy="241.07" r="24.34"/>
    <circle cx="243.82" cy="241.74" r="24.34"/>
    <circle cx="243.62" cy="242.41" r="24.34"/>
    <circle cx="243.41" cy="243.08" r="24.34"/>
    <circle cx="243.19" cy="243.74" r="24.34"/>
    <circle cx="242.97" cy="244.4" r="24.34"/>
    <circle cx="242.73" cy="245.05" r="24.34"/>
    <circle cx="242.49" cy="245.71" r="24.34"/>
    <circle cx="242.24" cy="246.35" r="24.34"/>
    <circle cx="241.98" cy="247" r="24.34"/>
    <circle cx="241.71" cy="247.64" r="24.34"/>
    <circle cx="241.43" cy="248.27" r="24.34"/>
    <circle cx="241.14" cy="248.9" r="24.34"/>
    <circle cx="240.85" cy="249.53" r="24.34"/>
    <circle cx="240.54" cy="250.15" r="24.34"/>
    <circle cx="240.23" cy="250.77" r="24.34"/>
    <circle cx="239.91" cy="251.38" r="24.34"/>
    <circle cx="239.58" cy="251.99" r="24.34"/>
    <circle cx="239.25" cy="252.59" r="24.34"/>
    <circle cx="238.9" cy="253.19" r="24.34"/>
    <circle cx="238.55" cy="253.78" r="24.34"/>
    <circle cx="238.19" cy="254.37" r="24.34"/>
    <circle cx="237.82" cy="254.96" r="24.34"/>
    <circle cx="237.44" cy="255.54" r="24.34"/>
    <circle cx="237.06" cy="256.11" r="24.34"/>
    <circle cx="236.66" cy="256.68" r="24.34"/>
    <circle cx="236.26" cy="257.24" r="24.34"/>
    <circle cx="235.86" cy="257.79" r="24.34"/>
    <circle cx="235.44" cy="258.35" r="24.34"/>
    <circle cx="235.02" cy="258.89" r="24.34"/>
    <circle cx="234.59" cy="259.43" r="24.34"/>
    <circle cx="234.15" cy="259.96" r="24.34"/>
    <circle cx="233.71" cy="260.49" r="24.34"/>
    <circle cx="233.25" cy="261.01" r="24.34"/>
    <circle cx="232.79" cy="261.53" r="24.34"/>
    <circle cx="232.33" cy="262.04" r="24.34"/>
    <circle cx="231.86" cy="262.54" r="24.34"/>
    <circle cx="231.37" cy="263.04" r="24.34"/>
    <circle cx="230.89" cy="263.53" r="24.34"/>
    <circle cx="230.39" cy="264.02" r="24.34"/>
    <circle cx="229.89" cy="264.49" r="24.34"/>
    <circle cx="229.38" cy="264.96" r="24.34"/>
    <circle cx="228.87" cy="265.43" r="24.34"/>
    <circle cx="228.35" cy="265.88" r="24.34"/>
    <circle cx="227.82" cy="266.33" r="24.34"/>
    <circle cx="227.29" cy="266.78" r="24.34"/>
    <circle cx="226.74" cy="267.21" r="24.34"/>
    <circle cx="226.2" cy="267.64" r="24.34"/>
    <circle cx="225.64" cy="268.07" r="24.34"/>
    <circle cx="225.08" cy="268.48" r="24.34"/>
    <circle cx="224.52" cy="268.89" r="24.34"/>
    <circle cx="223.94" cy="269.29" r="24.34"/>
    <circle cx="223.37" cy="269.68" r="24.34"/>
    <circle cx="222.78" cy="270.06" r="24.34"/>
    <circle cx="222.19" cy="270.44" r="24.34"/>
    <circle cx="221.6" cy="270.81" r="24.34"/>
    <circle cx="220.99" cy="271.17" r="24.34"/>
    <circle cx="220.38" cy="271.52" r="24.34"/>
    <circle cx="219.77" cy="271.86" r="24.34"/>
    <circle cx="219.15" cy="272.2" r="24.34"/>
    <circle cx="218.53" cy="272.53" r="24.34"/>
    <circle cx="217.9" cy="272.85" r="24.34"/>
    <circle cx="217.26" cy="273.16" r="24.34"/>
    <circle cx="216.62" cy="273.46" r="24.34"/>
    <circle cx="215.97" cy="273.76" r="24.34"/>
    <circle cx="215.32" cy="274.04" r="24.34"/>
    <circle cx="214.66" cy="274.32" r="24.34"/>
    <circle cx="214" cy="274.59" r="24.34"/>
    <circle cx="213.33" cy="274.85" r="24.34"/>
    <circle cx="212.66" cy="275.1" r="24.34"/>
    <circle cx="211.98" cy="275.34" r="24.34"/>
    <circle cx="211.3" cy="275.57" r="24.34"/>
    <circle cx="210.61" cy="275.79" r="24.34"/>
    <circle cx="209.92" cy="276.01" r="24.34"/>
    <circle cx="209.22" cy="276.21" r="24.34"/>
    <circle cx="208.52" cy="276.4" r="24.34"/>
    <circle cx="207.81" cy="276.59" r="24.34"/>
    <circle cx="207.1" cy="276.76" r="24.34"/>
    <circle cx="205.67" cy="277.08" r="24.34"/>
    <circle cx="204.25" cy="277.36" r="24.34"/>
    <circle cx="202.84" cy="277.6" r="24.34"/>
    <circle cx="201.43" cy="277.8" r="24.34"/>
    <circle cx="200.04" cy="277.96" r="24.34"/>
    <circle cx="198.64" cy="278.07" r="24.34"/>
    <circle cx="197.26" cy="278.15" r="24.34"/>
    <circle cx="195.89" cy="278.2" r="24.34"/>
    <circle cx="194.52" cy="278.2" r="24.34"/>
    <circle cx="193.17" cy="278.17" r="24.34"/>
    <circle cx="191.82" cy="278.1" r="24.34"/>
    <circle cx="190.48" cy="277.99" r="24.34"/>
    <circle cx="189.16" cy="277.85" r="24.34"/>
    <circle cx="187.84" cy="277.68" r="24.34"/>
    <circle cx="186.54" cy="277.47" r="24.34"/>
    <circle cx="185.25" cy="277.22" r="24.34"/>
    <circle cx="183.97" cy="276.94" r="24.34"/>
    <circle cx="182.7" cy="276.63" r="24.34"/>
    <circle cx="181.45" cy="276.29" r="24.34"/>
    <circle cx="180.21" cy="275.92" r="24.34"/>
    <circle cx="178.98" cy="275.51" r="24.34"/>
    <circle cx="177.77" cy="275.07" r="24.34"/>
    <circle cx="176.58" cy="274.61" r="24.34"/>
    <circle cx="175.4" cy="274.11" r="24.34"/>
    <circle cx="174.23" cy="273.59" r="24.34"/>
    <circle cx="173.08" cy="273.03" r="24.34"/>
    <circle cx="171.95" cy="272.45" r="24.34"/>
    <circle cx="170.83" cy="271.84" r="24.34"/>
    <circle cx="169.73" cy="271.2" r="24.34"/>
    <circle cx="168.65" cy="270.54" r="24.34"/>
    <circle cx="167.59" cy="269.85" r="24.34"/>
    <circle cx="166.54" cy="269.13" r="24.34"/>
    <circle cx="165.52" cy="268.39" r="24.34"/>
    <circle cx="164.51" cy="267.63" r="24.34"/>
    <circle cx="163.53" cy="266.84" r="24.34"/>
    <circle cx="162.56" cy="266.02" r="24.34"/>
    <circle cx="161.62" cy="265.19" r="24.34"/>
    <circle cx="160.69" cy="264.33" r="24.34"/>
    <circle cx="159.79" cy="263.45" r="24.34"/>
    <circle cx="158.91" cy="262.55" r="24.34"/>
    <circle cx="158.05" cy="261.63" r="24.34"/>
    <circle cx="157.22" cy="260.69" r="24.34"/>
    <circle cx="156.41" cy="259.73" r="24.34"/>
    <circle cx="155.62" cy="258.74" r="24.34"/>
    <circle cx="154.85" cy="257.74" r="24.34"/>
    <circle cx="154.11" cy="256.73" r="24.34"/>
    <circle cx="153.4" cy="255.69" r="24.34"/>
    <circle cx="152.71" cy="254.64" r="24.34"/>
    <circle cx="152.04" cy="253.57" r="24.34"/>
    <circle cx="151.41" cy="252.48" r="24.34"/>
    <circle cx="150.8" cy="251.38" r="24.34"/>
    <circle cx="150.21" cy="250.27" r="24.34"/>
    <circle cx="149.66" cy="249.14" r="24.34"/>
    <circle cx="149.13" cy="247.99" r="24.34"/>
    <circle cx="148.63" cy="246.84" r="24.34"/>
    <circle cx="148.15" cy="245.67" r="24.34"/>
    <circle cx="147.71" cy="244.48" r="24.34"/>
    <circle cx="147.3" cy="243.29" r="24.34"/>
    <circle cx="146.91" cy="242.08" r="24.34"/>
    <circle cx="146.56" cy="240.86" r="24.34"/>
    <circle cx="146.24" cy="239.64" r="24.34"/>
    <circle cx="145.95" cy="238.4" r="24.34"/>
    <circle cx="145.69" cy="237.15" r="24.34"/>
    <circle cx="145.46" cy="235.9" r="24.34"/>
    <circle cx="145.27" cy="234.63" r="24.34"/>
    <circle cx="145.1" cy="233.36" r="24.34"/>
    <circle cx="144.97" cy="232.08" r="24.34"/>
    <circle cx="144.88" cy="230.8" r="24.34"/>
    <circle cx="144.82" cy="229.51" r="24.34"/>
    <circle cx="144.79" cy="228.21" r="24.34"/>
    <circle cx="144.8" cy="226.91" r="24.34"/>
    <circle cx="144.85" cy="225.61" r="24.34"/>
    <circle cx="144.92" cy="224.3" r="24.34"/>
    <circle cx="145.04" cy="222.98" r="24.34"/>
    <circle cx="145.19" cy="221.66" r="24.34"/>
    <circle cx="145.38" cy="220.35" r="24.34"/>
    <circle cx="145.61" cy="219.03" r="24.34"/>
    <circle cx="145.88" cy="217.7" r="24.34"/>
    <circle cx="146.18" cy="216.38" r="24.34"/>
    <circle cx="146.52" cy="215.06" r="24.34"/>
    <circle cx="146.9" cy="213.73" r="24.34"/>
    <circle cx="147.32" cy="212.41" r="24.34"/>
    <circle cx="147.79" cy="211.09" r="24.34"/>
    <circle cx="148.29" cy="209.77" r="24.34"/>
    <circle cx="148.83" cy="208.45" r="24.34"/>
    <circle cx="149.41" cy="207.14" r="24.34"/>
    <circle cx="150.04" cy="205.83" r="24.34"/>
    <circle cx="150.65" cy="204.62" r="24.34"/>
    <circle cx="151.23" cy="203.53" r="24.34"/>
    <circle cx="151.82" cy="202.43" r="24.34"/>
    <circle cx="152.42" cy="201.32" r="24.34"/>
    <circle cx="153.05" cy="200.21" r="24.34"/>
    <circle cx="153.69" cy="199.1" r="24.34"/>
    <circle cx="154.35" cy="197.98" r="24.34"/>
    <circle cx="155.03" cy="196.86" r="24.34"/>
    <circle cx="155.72" cy="195.73" r="24.34"/>
    <circle cx="156.44" cy="194.6" r="24.34"/>
    <circle cx="157.17" cy="193.46" r="24.34"/>
    <circle cx="157.92" cy="192.32" r="24.34"/>
    <circle cx="158.69" cy="191.18" r="24.34"/>
    <circle cx="159.48" cy="190.03" r="24.34"/>
  </g>
  <circle cx="401.94" cy="102.65" r="16.85"/>
  <circle cx="481.58" cy="102.65" r="16.85"/>
  <g>
    <path d="M435.6,355.93c-3.16-1.85-4.46-5.08-3.62-8.66,5.18-1.01,7.76-7.06,5.1-11.62-4.23-7.24-15.43-3.87-14.8,4.71.05.64.35,1.27.26,1.92-.09.61-.63,1.69-.81,2.42-.85,3.52-.54,6.94.69,10.31-9.27-4.75-11.93-16.27-5.87-24.8.19-.26.88-.94.96-1.11.07-.16-.03-.24-.19-.19-.48.14-1.7.99-2.18,1.31-10.06,6.96-12,21.46-3.91,30.73,1.02,1.16,4.38,3.38,2,4.97-1.58,1.05-3.46-1.26-4.46-2.38-16.3-18.38,1.82-46.44,25.41-39.6,11.69,3.39,16.53,17.05,8.79,26.74-1.93,2.42-4.54,4.05-7.37,5.24Z"/>
    <path d="M416.81,366.43c1.68-.35,2.96.94,2.74,2.61-.34,2.57-4.7,2.42-4.38-.76.08-.84.82-1.67,1.65-1.84Z"/>
    <path d="M450.05,318.36c3.35-.61,3.83,4.66.22,4.37-2.47-.2-2.58-3.94-.22-4.37Z"/>
    <path d="M435.6,355.93c6.02,3.53,12.92-1.4,11.86-8.17-.07-.44-.36-1.04-.34-1.45.03-.68.74-2.3.88-3.26.48-3.26.03-6.62-1.34-9.61,10.03,4.26,13.07,17.58,6.02,25.9,4.66-2.35,8.28-7.09,9.76-12.08,2.52-8.51-.64-17.33-7.49-22.75-.97-1.48.58-3.27,2.22-2.61.7.28,2.99,2.59,3.59,3.26,16.55,18.67-2.75,47.36-26.39,39.29-13.34-4.56-15.29-23.08-3.04-30.18.38-.22,2.37-1.25,2.62-1.21.39.06,1.8,1.42,2.1,1.79,1.51,1.84,2.08,4.39,1.59,6.7-2.84.67-5,2.87-5.67,5.71-.84,3.58.46,6.81,3.62,8.66Z"/>
  </g>
</svg>